<?xml version="1.0" encoding="utf-8"?>
<!-- Generator: Adobe Illustrator 25.4.1, SVG Export Plug-In . SVG Version: 6.00 Build 0)  -->
<svg version="1.0" id="Layer_1" xmlns="http://www.w3.org/2000/svg" xmlns:xlink="http://www.w3.org/1999/xlink" x="0px" y="0px"
	 viewBox="0 0 432 288" style="enable-background:new 0 0 432 288;" xml:space="preserve">
<polygon style="fill:#E6E7E8;" points="315.2,288 116.6,288 203.2,143.1 228.8,143.1 315.2,287.7 "/>
<rect x="203.2" y="105.7" style="fill:none;stroke:#000000;stroke-miterlimit:10;" width="25.5" height="37.5"/>
<line style="fill:none;stroke:#000000;stroke-miterlimit:10;" x1="116.6" y1="288" x2="203.2" y2="143.1"/>
<line style="fill:none;stroke:#000000;stroke-miterlimit:10;" x1="203.2" y1="105.7" x2="98.5" y2="0"/>
<line style="fill:none;stroke:#000000;stroke-miterlimit:10;" x1="333.5" y1="0" x2="228.8" y2="105.7"/>
<line style="fill:none;stroke:#000000;stroke-miterlimit:10;" x1="315.2" y1="287.7" x2="228.8" y2="143.1"/>
<path style="fill:#414042;" d="M215.9,130.8L215.9,130.8c2.4,0,4.3,1.9,4.3,4.3v0v8.1l0,0h-8.6l0,0v-8.1
	C211.6,132.7,213.5,130.8,215.9,130.8z"/>
<ellipse style="fill:#414042;" cx="215.8" cy="127.1" rx="2.3" ry="2.7"/>
</svg>
