<?xml version="1.0" encoding="utf-8"?>
<!-- Generator: Adobe Illustrator 25.4.1, SVG Export Plug-In . SVG Version: 6.00 Build 0)  -->
<svg version="1.0" id="Layer_1" xmlns="http://www.w3.org/2000/svg" xmlns:xlink="http://www.w3.org/1999/xlink" x="0px" y="0px"
	 viewBox="0 0 432 288" style="enable-background:new 0 0 432 288;" xml:space="preserve">
<polygon style="fill:#E6E7E8;" points="312.7,288 120.4,288 154.8,230.6 278.4,230.6 "/>
<rect x="154.8" y="49.1" style="fill:none;stroke:#000000;stroke-miterlimit:10;" width="123.6" height="181.5"/>
<line style="fill:none;stroke:#000000;stroke-miterlimit:10;" x1="120.4" y1="288" x2="154.8" y2="230.6"/>
<line style="fill:none;stroke:#000000;stroke-miterlimit:10;" x1="154.8" y1="49.1" x2="129.6" y2="0"/>
<line style="fill:none;stroke:#000000;stroke-miterlimit:10;" x1="303.6" y1="0" x2="278.4" y2="49.1"/>
<polyline style="fill:none;stroke:#000000;stroke-miterlimit:10;" points="313.8,289.9 312.7,288 278.4,230.6 "/>
<path style="fill:#414042;" d="M216.6,175.4L216.6,175.4c10.6,0,19.3,8.6,19.3,19.3v35.9l0,0h-38.5l0,0v-35.9
	C197.3,184,205.9,175.4,216.6,175.4z"/>
<ellipse style="fill:#414042;" cx="216.3" cy="159" rx="10.1" ry="12.1"/>
<path style="fill:none;stroke:#FFFFFF;stroke-miterlimit:10;" d="M206.1,154.6c0,0,7,0.1,8.2,1.6s-0.2,3.6,0,4.6s0.8,1.9,3.2,0.8"/>
<path style="fill:none;stroke:#FFFFFF;stroke-miterlimit:10;" d="M218.7,156c2.4-1.3,5.2-1.9,7.9-1.9"/>
<path style="fill:none;stroke:#FFFFFF;stroke-miterlimit:10;" d="M213.4,166.6c1.9,0.6,4,0.6,5.9,0"/>
</svg>
