<svg id="Layer_1" data-name="Layer 1" xmlns="http://www.w3.org/2000/svg" viewBox="0 0 432 288"><defs><style>.cls-1{fill:#e6e7e8;}.cls-2{fill:none;stroke:#231f20;stroke-miterlimit:10;}.cls-3{fill:#414042;}</style></defs><polygon class="cls-1" points="0 288 0 244.17 155.55 244.17 211.85 150.1 220.15 150.1 276.45 244.17 432 244.17 432 288 0 288"/><polyline class="cls-2" points="0 244.17 155.55 244.17 155.55 81.1 276.45 81.1 276.45 244.17 432 244.17"/><rect class="cls-2" x="211.85" y="137.9" width="8.3" height="12.2"/><line class="cls-2" x1="155.55" y1="244.17" x2="211.85" y2="150.1"/><line class="cls-2" x1="211.85" y1="137.9" x2="155.55" y2="81.1"/><line class="cls-2" x1="276.45" y1="81.1" x2="220.15" y2="137.9"/><line class="cls-2" x1="276.45" y1="244.17" x2="220.15" y2="150.1"/><path class="cls-3" d="M216,145.57h0a1.58,1.58,0,0,1,1.58,1.58v2.71a.24.24,0,0,1-.24.24h-2.68a.24.24,0,0,1-.24-.24v-2.71a1.58,1.58,0,0,1,1.58-1.58Z"/><ellipse class="cls-3" cx="215.98" cy="144.23" rx="0.83" ry="0.99"/></svg>