<svg id="Layer_1" data-name="Layer 1" xmlns="http://www.w3.org/2000/svg" viewBox="0 0 432 288"><defs><style>.cls-1{fill:#e6e7e8;}.cls-2{fill:none;stroke:#231f20;stroke-miterlimit:10;}.cls-3{fill:#414042;}</style></defs><polygon class="cls-1" points="315.24 288 116.55 288 203.25 143.13 228.75 143.13 315.24 287.66 315.24 288"/><rect class="cls-2" x="203.25" y="105.68" width="25.5" height="37.45"/><line class="cls-2" x1="116.55" y1="288" x2="203.25" y2="143.13"/><line class="cls-2" x1="203.25" y1="105.68" x2="98.52"/><line class="cls-2" x1="333.48" x2="228.75" y2="105.68"/><line class="cls-2" x1="315.24" y1="287.66" x2="228.75" y2="143.13"/><path class="cls-3" d="M215.89,130.77h0a4.32,4.32,0,0,1,4.32,4.32v8.05a0,0,0,0,1,0,0h-8.63a0,0,0,0,1,0,0v-8.05A4.32,4.32,0,0,1,215.89,130.77Z"/><ellipse class="cls-3" cx="215.83" cy="127.11" rx="2.27" ry="2.7"/></svg>