<svg id="Layer_1" data-name="Layer 1" xmlns="http://www.w3.org/2000/svg" viewBox="0 0 432 288"><defs><style>.cls-1{fill:#e6e7e8;}.cls-2,.cls-4{fill:none;stroke-miterlimit:10;}.cls-2{stroke:#231f20;}.cls-3{fill:#414042;}.cls-4{stroke:#fff;}</style></defs><polygon class="cls-1" points="312.71 288 120.4 288 154.77 230.58 278.35 230.58 312.71 288"/><rect class="cls-2" x="154.77" y="49.08" width="123.58" height="181.5"/><line class="cls-2" x1="120.4" y1="288" x2="154.77" y2="230.58"/><line class="cls-2" x1="154.77" y1="49.08" x2="129.56"/><line class="cls-2" x1="303.56" x2="278.35" y2="49.08"/><polyline class="cls-2" points="313.84 289.88 312.71 288 278.35 230.58"/><path class="cls-3" d="M216.56,175.38h0a19.26,19.26,0,0,1,19.26,19.26v35.94a0,0,0,0,1,0,0H197.3a0,0,0,0,1,0,0V194.64A19.26,19.26,0,0,1,216.56,175.38Z"/><ellipse class="cls-3" cx="216.27" cy="159.04" rx="10.14" ry="12.05"/><path class="cls-4" d="M206.13,154.56s7,.08,8.19,1.56-.16,3.64,0,4.65.84,1.9,3.22.79"/><path class="cls-4" d="M218.71,156a15.7,15.7,0,0,1,7.93-1.85"/><path class="cls-4" d="M213.44,166.64a10.2,10.2,0,0,0,5.95,0"/></svg>