<svg id="Layer_3" data-name="Layer 3" xmlns="http://www.w3.org/2000/svg" viewBox="0 0 1152 720"><path d="M445,312.9a4.86,4.86,0,0,1-1.76-1.26,5.9,5.9,0,0,1-1.2-2.16,10.27,10.27,0,0,1-.43-3.12,10.1,10.1,0,0,1,.35-2.78,6.66,6.66,0,0,1,.91-2,5.27,5.27,0,0,1,1.3-1.32,5,5,0,0,1,1.51-.74,5.74,5.74,0,0,1,1.57-.23,5,5,0,0,1,2.69.69,4.52,4.52,0,0,1,1.71,2L450,303.31l-.16.13-.15-.18a1,1,0,0,0,0-.34,1.67,1.67,0,0,0-.24-.45,2.18,2.18,0,0,0-.95-.73,3.32,3.32,0,0,0-1-.17,2.28,2.28,0,0,0-1.12.29,3.15,3.15,0,0,0-1,.87,4.62,4.62,0,0,0-.71,1.46,7.37,7.37,0,0,0-.26,2.06,8.65,8.65,0,0,0,.21,2,5.09,5.09,0,0,0,.58,1.49,2.75,2.75,0,0,0,.89.93,2.15,2.15,0,0,0,1.13.32,3.06,3.06,0,0,0,.95-.14,1.84,1.84,0,0,0,.77-.45,3.53,3.53,0,0,0,.66-.87l1.94,1.43a4.75,4.75,0,0,1-1.9,1.82,5.86,5.86,0,0,1-2.53.52A5.37,5.37,0,0,1,445,312.9Z" style="fill:#939393"/><path d="M457.48,313.25a4.94,4.94,0,0,1-2.51-.65,4.71,4.71,0,0,1-1.78-1.84,5.5,5.5,0,0,1-.66-2.74,5.34,5.34,0,0,1,.66-2.65,5,5,0,0,1,1.78-1.88,4.69,4.69,0,0,1,2.51-.69,4.77,4.77,0,0,1,2.52.69,5.16,5.16,0,0,1,1.8,1.88,5.25,5.25,0,0,1,.67,2.65,5.38,5.38,0,0,1-.67,2.72,4.84,4.84,0,0,1-4.32,2.51Zm0-2.22a1.85,1.85,0,0,0,1.15-.38,2.5,2.5,0,0,0,.78-1,4,4,0,0,0,.29-1.58,4.12,4.12,0,0,0-.29-1.62,2.28,2.28,0,0,0-.78-1,1.9,1.9,0,0,0-1.15-.36,1.84,1.84,0,0,0-1.11.36,2.28,2.28,0,0,0-.78,1,4.12,4.12,0,0,0-.29,1.62,4,4,0,0,0,.29,1.58,2.5,2.5,0,0,0,.78,1A1.8,1.8,0,0,0,457.48,311Z" style="fill:#939393"/><path d="M464.25,313.07v-2.2h2.86V300.64h-2.72v-2.2h5.54v12.43h2.82v2.2Z" style="fill:#939393"/><path d="M475.25,313.07v-2.2h2.86V300.64h-2.72v-2.2h5.54v12.43h2.82v2.2Z" style="fill:#939393"/><path d="M489.25,313.25a4,4,0,0,1-2.62-.78,2.56,2.56,0,0,1-.95-2.06,3,3,0,0,1,.37-1.49,3.45,3.45,0,0,1,1.1-1.2,5.74,5.74,0,0,1,1.85-.8,10.24,10.24,0,0,1,2.62-.29h.84l.48,0,.07,1.89-.45,0h-1a7.69,7.69,0,0,0-1.5.12,2.72,2.72,0,0,0-.93.32,1.24,1.24,0,0,0-.47.47,1.31,1.31,0,0,0-.13.59,1.06,1.06,0,0,0,.1.48.64.64,0,0,0,.27.33,1.3,1.3,0,0,0,.43.18,2.35,2.35,0,0,0,.54.06,2.67,2.67,0,0,0,1-.18,1.79,1.79,0,0,0,.74-.6,2.62,2.62,0,0,0,.44-1,6.63,6.63,0,0,0,.14-1.51A4.89,4.89,0,0,0,492,306a1.55,1.55,0,0,0-.68-.84,2.4,2.4,0,0,0-1.1-.22,4.25,4.25,0,0,0-1.29.2,3.31,3.31,0,0,0-1.22.85l-1.56-1.65a5.55,5.55,0,0,1,2-1.21,7.18,7.18,0,0,1,2.17-.35,7.38,7.38,0,0,1,1.79.21,4.32,4.32,0,0,1,1.5.7,3.29,3.29,0,0,1,1,1.33,5.24,5.24,0,0,1,.38,2.11v5.92h-2.86V312a5.2,5.2,0,0,1-.59.57,2.36,2.36,0,0,1-.65.38,3,3,0,0,1-.74.21A4.83,4.83,0,0,1,489.25,313.25Z" style="fill:#939393"/><path d="M501.19,316.86a9.65,9.65,0,0,1-2-.19,5,5,0,0,1-1.46-.55,2.48,2.48,0,0,1-.91-.84,1.9,1.9,0,0,1-.31-1.06,1.81,1.81,0,0,1,.26-.93,2.66,2.66,0,0,1,.73-.77,4,4,0,0,1,1-.54l1.28.47-.55.37a2.83,2.83,0,0,0-.48.4.79.79,0,0,0-.18.51.52.52,0,0,0,.22.44,1.58,1.58,0,0,0,.61.29,5.54,5.54,0,0,0,.9.17c.34,0,.72.05,1.13.05a6.46,6.46,0,0,0,1.34-.12,2.25,2.25,0,0,0,.85-.34.62.62,0,0,0,.29-.51.59.59,0,0,0-.17-.44,1.21,1.21,0,0,0-.6-.23A6.89,6.89,0,0,0,502,313c-.47,0-.94,0-1.4,0a9.11,9.11,0,0,1-1.32-.2,5,5,0,0,1-1.13-.41,2.17,2.17,0,0,1-.78-.62,1.49,1.49,0,0,1-.28-.93,1.87,1.87,0,0,1,.46-1.29,4.94,4.94,0,0,1,1.1-.92l1.26.66a3.86,3.86,0,0,1-.38.29,1.81,1.81,0,0,0-.28.23.41.41,0,0,0-.11.33c0,.14.12.27.37.38a4,4,0,0,0,1.18.25c.53,0,1.23.07,2.1.07a5.14,5.14,0,0,1,1.57.21,2.68,2.68,0,0,1,1.05.6,2.47,2.47,0,0,1,.58.86,2.9,2.9,0,0,1,.19,1,2.8,2.8,0,0,1-.3,1.25,3.2,3.2,0,0,1-.91,1.09,4.62,4.62,0,0,1-1.57.78A7.71,7.71,0,0,1,501.19,316.86Zm-.11-7.2a4.32,4.32,0,0,1-2-.45,3.65,3.65,0,0,1-1.4-1.23,3,3,0,0,1-.52-1.72,3.08,3.08,0,0,1,.52-1.76,3.59,3.59,0,0,1,1.4-1.24,4.2,4.2,0,0,1,2-.46,4.13,4.13,0,0,1,2,.46,3.66,3.66,0,0,1,1.4,1.24,3.16,3.16,0,0,1,.52,1.76,3,3,0,0,1-.52,1.72,3.72,3.72,0,0,1-1.4,1.23A4.25,4.25,0,0,1,501.08,309.66Zm0-2a1.7,1.7,0,0,0,.79-.17,1.21,1.21,0,0,0,.55-.5,1.47,1.47,0,0,0,.2-.74,1.3,1.3,0,0,0-.2-.73,1.39,1.39,0,0,0-.56-.48,1.85,1.85,0,0,0-.78-.17,1.47,1.47,0,0,0-.71.18,1.83,1.83,0,0,0-.58.49,1.16,1.16,0,0,0-.23.71,1.25,1.25,0,0,0,.21.7,1.52,1.52,0,0,0,.55.52A1.51,1.51,0,0,0,501.06,307.68Zm3.28-2.68-1.06-1.32a5.06,5.06,0,0,1,1.44-.69,4.84,4.84,0,0,1,1.75-.19l.24,1.83a3.62,3.62,0,0,0-1.27,0A2.68,2.68,0,0,0,504.34,305Z" style="fill:#939393"/><path d="M512.94,313.25a6,6,0,0,1-2.05-.35,4.91,4.91,0,0,1-1.64-1,4.61,4.61,0,0,1-1.08-1.62,5.52,5.52,0,0,1-.4-2.17,6.23,6.23,0,0,1,.38-2.22,5.1,5.1,0,0,1,1.05-1.68,4.55,4.55,0,0,1,1.55-1,5.14,5.14,0,0,1,1.93-.36,4.58,4.58,0,0,1,1.7.31,4.09,4.09,0,0,1,1.43.94,4.39,4.39,0,0,1,1,1.55,5.87,5.87,0,0,1,.36,2.13v.58a4.89,4.89,0,0,1,0,.58h-6.66a2.35,2.35,0,0,0,.27,1,2,2,0,0,0,.6.68,2.56,2.56,0,0,0,.81.4,3.13,3.13,0,0,0,.91.13,4,4,0,0,0,.87-.08,2.84,2.84,0,0,0,.79-.27,2.58,2.58,0,0,0,.74-.57l1.41,1.38a4.67,4.67,0,0,1-1.12,1,4.28,4.28,0,0,1-1.34.56A6,6,0,0,1,512.94,313.25Zm-2.44-6.45h4a2.49,2.49,0,0,0-.12-.8,1.41,1.41,0,0,0-.37-.57,1.82,1.82,0,0,0-.61-.34,2.52,2.52,0,0,0-.81-.11,2.57,2.57,0,0,0-.75.1,1.73,1.73,0,0,0-.63.33,1.84,1.84,0,0,0-.45.57A2.54,2.54,0,0,0,510.5,306.8Z" style="fill:#939393"/><path d="M533,312.9a4.86,4.86,0,0,1-1.76-1.26,5.9,5.9,0,0,1-1.2-2.16,10.27,10.27,0,0,1-.43-3.12,10.1,10.1,0,0,1,.35-2.78,6.66,6.66,0,0,1,.91-2,5.27,5.27,0,0,1,1.3-1.32,5,5,0,0,1,1.51-.74,5.74,5.74,0,0,1,1.57-.23,5,5,0,0,1,2.69.69,4.52,4.52,0,0,1,1.71,2L538,303.31l-.16.13-.15-.18a1,1,0,0,0,0-.34,1.67,1.67,0,0,0-.24-.45,2.18,2.18,0,0,0-.95-.73,3.32,3.32,0,0,0-1-.17,2.28,2.28,0,0,0-1.12.29,3.15,3.15,0,0,0-1,.87,4.62,4.62,0,0,0-.71,1.46,7.37,7.37,0,0,0-.26,2.06,8.65,8.65,0,0,0,.21,2,5.09,5.09,0,0,0,.58,1.49,2.75,2.75,0,0,0,.89.93,2.15,2.15,0,0,0,1.13.32,3.06,3.06,0,0,0,.95-.14,1.84,1.84,0,0,0,.77-.45,3.53,3.53,0,0,0,.66-.87l1.94,1.43a4.75,4.75,0,0,1-1.9,1.82,5.86,5.86,0,0,1-2.53.52A5.37,5.37,0,0,1,533,312.9Z" style="fill:#939393"/><path d="M545.48,313.25a4.94,4.94,0,0,1-2.51-.65,4.71,4.71,0,0,1-1.78-1.84,5.5,5.5,0,0,1-.66-2.74,5.34,5.34,0,0,1,.66-2.65,5,5,0,0,1,1.78-1.88,4.69,4.69,0,0,1,2.51-.69,4.77,4.77,0,0,1,2.52.69,5.16,5.16,0,0,1,1.8,1.88,5.25,5.25,0,0,1,.67,2.65,5.38,5.38,0,0,1-.67,2.72,4.84,4.84,0,0,1-4.32,2.51Zm0-2.22a1.85,1.85,0,0,0,1.15-.38,2.5,2.5,0,0,0,.78-1,4,4,0,0,0,.29-1.58,4.12,4.12,0,0,0-.29-1.62,2.28,2.28,0,0,0-.78-1,1.9,1.9,0,0,0-1.15-.36,1.84,1.84,0,0,0-1.11.36,2.28,2.28,0,0,0-.78,1,4.12,4.12,0,0,0-.29,1.62,4,4,0,0,0,.29,1.58,2.5,2.5,0,0,0,.78,1A1.8,1.8,0,0,0,545.48,311Z" style="fill:#939393"/><path d="M552.25,313.07v-2.2h2.86V300.64h-2.72v-2.2h5.54v12.43h2.82v2.2Z" style="fill:#939393"/><path d="M563.25,313.07v-2.2h2.86V300.64h-2.72v-2.2h5.54v12.43h2.82v2.2Z" style="fill:#939393"/><path d="M578.94,313.25a6,6,0,0,1-2.05-.35,4.91,4.91,0,0,1-1.64-1,4.61,4.61,0,0,1-1.08-1.62,5.52,5.52,0,0,1-.4-2.17,6.23,6.23,0,0,1,.38-2.22,5.1,5.1,0,0,1,1.05-1.68,4.55,4.55,0,0,1,1.55-1,5.14,5.14,0,0,1,1.93-.36,4.58,4.58,0,0,1,1.7.31,4.09,4.09,0,0,1,1.43.94,4.39,4.39,0,0,1,1,1.55,5.87,5.87,0,0,1,.36,2.13v.58a4.89,4.89,0,0,1,0,.58h-6.66a2.35,2.35,0,0,0,.27,1,2,2,0,0,0,.6.68,2.56,2.56,0,0,0,.81.4,3.13,3.13,0,0,0,.91.13,4,4,0,0,0,.87-.08,2.84,2.84,0,0,0,.79-.27,2.58,2.58,0,0,0,.74-.57l1.41,1.38a4.67,4.67,0,0,1-1.12,1,4.28,4.28,0,0,1-1.34.56A6,6,0,0,1,578.94,313.25Zm-2.44-6.45h4a2.49,2.49,0,0,0-.12-.8,1.41,1.41,0,0,0-.37-.57,1.82,1.82,0,0,0-.61-.34,2.52,2.52,0,0,0-.81-.11,2.57,2.57,0,0,0-.75.1,1.73,1.73,0,0,0-.63.33,1.84,1.84,0,0,0-.45.57A2.54,2.54,0,0,0,576.5,306.8Z" style="fill:#939393"/><path d="M588,312.88a5.06,5.06,0,0,1-1.7-1.07,4.77,4.77,0,0,1-1.13-1.63,5.29,5.29,0,0,1-.39-2.06,5.45,5.45,0,0,1,.39-2.07,5.16,5.16,0,0,1,1.13-1.7,5.21,5.21,0,0,1,1.7-1.13,5.31,5.31,0,0,1,2.12-.42,5.79,5.79,0,0,1,2.56.53,4.27,4.27,0,0,1,1.71,1.49l-1.52,1.68-.15.15-.18-.13c0-.12,0-.24,0-.37a1.27,1.27,0,0,0-.25-.47,2.18,2.18,0,0,0-.89-.54,4.34,4.34,0,0,0-1.14-.14,2.38,2.38,0,0,0-1,.21,2.66,2.66,0,0,0-.83.6,2.73,2.73,0,0,0-.59,1,4,4,0,0,0-.21,1.35,3.34,3.34,0,0,0,.22,1.21,2.75,2.75,0,0,0,.59.92,2.57,2.57,0,0,0,1.81.76,3.24,3.24,0,0,0,.89-.12,3.18,3.18,0,0,0,.86-.4,3.63,3.63,0,0,0,.83-.76l1.51,1.76a4.73,4.73,0,0,1-2,1.33,6.64,6.64,0,0,1-2.24.41A5.8,5.8,0,0,1,588,312.88Z" style="fill:#939393"/><path d="M596.21,303h8.1l0,2.2h-8.09Zm3.86,10a2.43,2.43,0,0,1-1.12-.87,4.14,4.14,0,0,1-.67-1.64,10.52,10.52,0,0,1-.16-2.58l.31-7.27,2.86-.36.2,0,0,.23-.17.3a1.15,1.15,0,0,0-.11.52l-.27,3.1.13.08-.17,3.28a7.5,7.5,0,0,0,.1,2,1.76,1.76,0,0,0,.49,1,1.15,1.15,0,0,0,.75.27,2.7,2.7,0,0,0,1.24-.29,5.67,5.67,0,0,0,1-.66l.52,2a5.9,5.9,0,0,1-1.6.86,5.4,5.4,0,0,1-1.87.31A4.23,4.23,0,0,1,600.07,313Z" style="fill:#939393"/><path d="M611.48,313.25a4.94,4.94,0,0,1-2.51-.65,4.71,4.71,0,0,1-1.78-1.84,5.5,5.5,0,0,1-.66-.19,1.27v5.19h-2.84Z" style="fill:#939393"/><path d="M445.26,337.06a2.87,2.87,0,0,1-.91-.49,3.52,3.52,0,0,1-.73-.76l-.5,1.26h-.92v-13.3h1.64v.14a.52.52,0,0,0-.15.27,2.57,2.57,0,0,0,0,.48v4.69a3.57,3.57,0,0,1,1.18-1.18,3.43,3.43,0,0,1,.76-.33,3.12,3.12,0,0,1,.78-.11,4,4,0,0,1,1.53.29,3.09,3.09,0,0,1,1.19.87,4.14,4.14,0,0,1,.77,1.46,6.91,6.91,0,0,1,.27,2,6.54,6.54,0,0,1-.32,2.13A4.28,4.28,0,0,1,449,336a3.64,3.64,0,0,1-1.23.91,3.58,3.58,0,0,1-1.4.29A3.1,3.1,0,0,1,445.26,337.06Zm1.81-1.28a2.17,2.17,0,0,0,.81-.59,2.9,2.9,0,0,0,.57-1.08,5.5,5.5,0,0,0,.21-1.64,6,6,0,0,0-.18-1.55,3.2,3.2,0,0,0-.51-1.1,2,2,0,0,0-.79-.64,2.39,2.39,0,0,0-1-.21,2.06,2.06,0,0,0-1.31.45,2.9,2.9,0,0,0-.89,1.24,5,5,0,0,0-.32,1.85,6.73,6.73,0,0,0,.14,1.41,3.3,3.3,0,0,0,.43,1.08,2,2,0,0,0,.76.71,2.51,2.51,0,0,0,1.15.24A2.69,2.69,0,0,0,447.07,335.78Z" style="fill:#939393"/><path d="M452.37,340.31a2.65,2.65,0,0,1-.93-.58l.62-1,.12-.18.12.08a.58.58,0,0,0,.14.27,1.8,1.8,0,0,0,.38.29,2.34,2.34,0,0,0,.38.09,2.77,2.77,0,0,0,.42,0,1.5,1.5,0,0,0,.91-.26,2.11,2.11,0,0,0,.65-.79,8.21,8.21,0,0,0,.54-1.35l1.74-5.37c.2-.61.39-1.21.58-1.81a9.5,9.5,0,0,0,.38-1.82h1.44a11.64,11.64,0,0,1-.44,1.86c-.2.62-.41,1.25-.64,1.87l-2.28,6.42a3.94,3.94,0,0,1-1.23,1.89,2.89,2.89,0,0,1-1.73.54A3.13,3.13,0,0,1,452.37,340.31Zm-.45-12.38h1.5l3,7.6-.64,1.77Z" style="fill:#939393"/><path d="M475.16,337.07v-11.2h-3.54v-1.26h8.64v1.26h-3.68v11.2Z" style="fill:#939393"/><path d="M485.22,337.23a3.63,3.63,0,0,1-2.4-.7,2.28,2.28,0,0,1-.84-1.81,2.47,2.47,0,0,1,.36-1.32,3.15,3.15,0,0,1,1-1,5.18,5.18,0,0,1,1.47-.63,7.29,7.29,0,0,1,1.78-.22h.69l.74,0,.81.09,0,1.1c-.24,0-.48-.07-.73-.09l-.73-.05-.7,0a6.74,6.74,0,0,0-1.32.12,3.63,3.63,0,0,0-1,.36,1.86,1.86,0,0,0-.68.62,1.65,1.65,0,0,0-.24.91,1.52,1.52,0,0,0,.15.71,1.19,1.19,0,0,0,.41.45,1.67,1.67,0,0,0,.61.25,3.09,3.09,0,0,0,.77.08,3.79,3.79,0,0,0,1.39-.24,2.84,2.84,0,0,0,1-.73,3.17,3.17,0,0,0,.65-1.17,5.14,5.14,0,0,0,.22-1.59,5.61,5.61,0,0,0-.32-2.1,2,2,0,0,0-.95-1.07,3.6,3.6,0,0,0-1.61-.32,3.7,3.7,0,0,0-1.3.25,3.51,3.51,0,0,0-1.16.77l-.7-.92a4.39,4.39,0,0,1,1.48-1,5,5,0,0,1,1.78-.32,6,6,0,0,1,1.64.22,3.09,3.09,0,0,1,1.27.73,3.37,3.37,0,0,1,.82,1.37,7,7,0,0,1,.29,2.16v4.86h-1.56v-1.46a2.52,2.52,0,0,1-.63.82,2.65,2.65,0,0,1-.79.49,3.35,3.35,0,0,1-.86.24A4.92,4.92,0,0,1,485.22,337.23Z" style="fill:#939393"/><path d="M494.86,336.88a4.48,4.48,0,0,1-1.45-1,4.67,4.67,0,0,1-1-1.5,5.15,5.15,0,0,1-.34-1.91,5.06,5.06,0,0,1,.34-1.88,4.46,4.46,0,0,1,1-1.5,4.33,4.33,0,0,1,1.45-1,4.58,4.58,0,0,1,1.82-.36,4.37,4.37,0,0,1,2,.45,3.9,3.9,0,0,1,1.45,1.25l-.9.88-.14.14-.1-.1a.66.66,0,0,0-.07-.3,1.89,1.89,0,0,0-.31-.38,2.7,2.7,0,0,0-.94-.56,4,4,0,0,0-1.16-.16,2.59,2.59,0,0,0-1.1.24,2.82,2.82,0,0,0-.93.69,3.42,3.42,0,0,0-.65,1.08,4,4,0,0,0-.24,1.41,4.09,4.09,0,0,0,.24,1.43,3.57,3.57,0,0,0,.66,1.12,3,3,0,0,0,1,.75,3.17,3.17,0,0,0,1.27.26,2.84,2.84,0,0,0,.88-.13,2.79,2.79,0,0,0,.8-.38,3.33,3.33,0,0,0,.7-.61l.84,1a4.58,4.58,0,0,1-1.51,1.08,4.44,4.44,0,0,1-1.79.36A4.79,4.79,0,0,1,494.86,336.88Z" style="fill:#939393"/><path d="M502.37,340.31a2.65,2.65,0,0,1-.93-.58l.62-1,.12-.18.12.08a.58.58,0,0,0,.14.27,1.8,1.8,0,0,0,.38.29,2.34,2.34,0,0,0,.38.09,2.77,2.77,0,0,0,.42,0,1.5,1.5,0,0,0,.91-.26,2.11,2.11,0,0,0,.65-.79,8.21,8.21,0,0,0,.54-1.35l1.74-5.37c.2-.61.39-1.21.58-1.81a9.5,9.5,0,0,0,.38-1.82h1.44a11.64,11.64,0,0,1-.44,1.86c-.2.62-.41,1.25-.64,1.87l-2.28,6.42a3.94,3.94,0,0,1-1.23,1.89,2.89,2.89,0,0,1-1.73.54A3.13,3.13,0,0,1,502.37,340.31Zm-.45-12.38h1.5l3,7.6-.64,1.77Z" style="fill:#939393"/><path d="M522.18,337.07V324.61h4a4.62,4.62,0,0,1,2.26.48,3.11,3.11,0,0,1,1.27,1.27,3.85,3.85,0,0,1,.41,1.77,3.88,3.88,0,0,1-.22,1.34,3,3,0,0,1-.69,1.1,3.05,3.05,0,0,1-1.19.74,5,5,0,0,1-1.74.26h-2.66v5.5Zm1.44-6.74h2.5a3.43,3.43,0,0,0,1.48-.27,1.74,1.74,0,0,0,.82-.76,2.39,2.39,0,0,0,.26-1.13,2.46,2.46,0,0,0-.26-1.12,2,2,0,0,0-.82-.81,3.07,3.07,0,0,0-1.46-.31h-2.52Z" style="fill:#939393"/><path d="M533.38,327.93h1.5l-.06,2.68-.18-.3a3.23,3.23,0,0,1,.42-1.1,3.12,3.12,0,0,1,.72-.81,3.14,3.14,0,0,1,2-.67,3.62,3.62,0,0,1,1.33.25,3.23,3.23,0,0,1,1.09.75l-.64,1.12-.08.18-.14-.08a1.88,1.88,0,0,0-.12-.3,1.51,1.51,0,0,0-.34-.34,2.33,2.33,0,0,0-.59-.27,2.77,2.77,0,0,0-.61-.07,3,3,0,0,0-1,.19,2.64,2.64,0,0,0-.91.59,2.8,2.8,0,0,0-.65,1,4.14,4.14,0,0,0-.24,1.48v4.83h-1.46Z" style="fill:#939393"/><path d="M543,337.07v-1.16h2.34v-6.82h-2.22v-1.16h3.66v8h2.14v1.16ZM546,326a1,1,0,0,1-1-1,1,1,0,0,1,.29-.74,1,1,0,0,1,.73-.3,1,1,0,0,1,.73.31,1,1,0,0,1,.31.73,1,1,0,0,1-.31.72A1,1,0,0,1,546,326Z" style="fill:#939393"/><path d="M552.44,337.07v-9.14h1.4v1.64a4.62,4.62,0,0,1,.84-1,4,4,0,0,1,1.06-.64,3.32,3.32,0,0,1,1.2-.23,2.51,2.51,0,0,1,1.36.38,2.63,2.63,0,0,1,1,1.22,5.72,5.72,0,0,1,.36,2.22v5.52h-1.4v-5.48a4.27,4.27,0,0,0-.22-1.53,1.71,1.71,0,0,0-.6-.82,1.58,1.58,0,0,0-.86-.25,2.4,2.4,0,0,0-.93.2,3.43,3.43,0,0,0-.87.57,2.92,2.92,0,0,0-.65.89,2.65,2.65,0,0,0-.25,1.18v5.24Z" style="fill:#939393"/><path d="M564.57,337.07a5,5,0,0,1-1.3-.48,5.16,5.16,0,0,1-1.13-.8l.8-1.36.12-.18.12.08.09.33a1,1,0,0,0,.27.41,3.47,3.47,0,0,0,1,.69,3.64,3.64,0,0,0,1.51.27,4.1,4.1,0,0,0,1.25-.17,1.81,1.81,0,0,0,.79-.51,1.12,1.12,0,0,0,.28-.76,1.15,1.15,0,0,0-.12-.53,1.2wrewtewtewwtwertw7,1.27,0,0,0-.39-.42,3.52,3.52,0,0,0-.71-.4,9,9,0,0,0-1.08-.4,10.84,10.84,0,0,1-1.82-.69,3.68,3.68,0,0,1-1.2-.93,1.87,1.87,0,0,1-.42-1.2,1.93,1.93,0,0,1,.38-1.2,2.43,2.43,0,0,1,1.13-.8,5.24,5.24,0,0,1,1.85-.29,6.83,6.83,0,0,1,1.16.09,4.49,4.49,0,0,1,1,.27,4,4,0,0,1,.81.45,5.17,5.17,0,0,1,.71.63l-.82,1-.14.16-.1-.1a.91.91,0,0,0-.09-.31,1.51,1.51,0,0,0-.29-.37,3.45,3.45,0,0,0-1-.55,3.81,3.81,0,0,0-1.12-.19,3.27,3.27,0,0,0-1.38.28.89.89,0,0,0-.58.85,1,1,0,0,0,.21.59,2.22,2.22,0,0,0,.77.57,9.42,9.42,0,0,0,1.6.59,11.62,11.62,0,0,1,1.83.72,2.69,2.69,0,0,1,1,.85,2,2,0,0,1,.31,1.13,2.63,2.63,0,0,1-.41,1.41,2.79,2.79,0,0,1-1.25,1.05,5.22,5.22,0,0,1-2.12.38A6.2,6.2,0,0,1,564.57,337.07Z" style="fill:#939393"/><path d="M583.34,337.07l-2-12.46h1.3L584,333l2-7.5h.44l2,7.54,1.14-8.46h1.18l-2,12.46h-.54l-2.14-8.14-2.18,8.14Z" style="fill:#939393"/><path d="M596,337.23a3.92,3.92,0,0,1-2.19-.61,4.13,4.13,0,0,1-1.49-1.68,5.35,5.35,0,0,1-.54-2.45,5.44,5.44,0,0,1,.54-2.47,4.27,4.27,0,0,1,1.49-1.68,4.24,4.24,0,0,1,4.38,0,4.27,4.27,0,0,1,1.49,1.68,5.44,5.44,0,0,1,.54,2.47,5.35,5.35,0,0,1-.54,2.45,4.13,4.13,0,0,1-1.49,1.68A3.92,3.92,0,0,1,596,337.23Zm0-1.2a2.22,2.22,0,0,0,1.4-.46,3,3,0,0,0,1-1.26,4.57,4.57,0,0,0,.35-1.84,4.64,4.64,0,0,0-.35-1.84,3,3,0,0,0-1-1.25,2.39,2.39,0,0,0-2.79,0,3,3,0,0,0-1,1.25,4.64,4.64,0,0,0-.35,1.84,4.57,4.57,0,0,0,.35,1.84,3,3,0,0,0,1,1.26A2.23,2.23,0,0,0,596,336Z" style="fill:#939393"/><path d="M606,337.23a3.92,3.92,0,0,1-2.19-.61,4.13,4.13,0,0,1-1.49-1.68,5.35,5.35,0,0,1-.54-2.45,5.44,5.44,0,0,1,.54-2.47,4.27,4.27,0,0,1,1.49-1.68,4.24,4.24,0,0,1,4.38,0,4.27,4.27,0,0,1,1.49,1.68,5.44,5.44,0,0,1,.54,2.47,5.35,5.35,0,0,1-.54,2.45,4.13,4.13,0,0,1-1.49,1.68A3.92,3.92,0,0,1,606,337.23Zm0-1.2a2.22,2.22,0,0,0,1.4-.46,3,3,0,0,0,1-1.26,4.57,4.57,0,0,0,.35-1.84,4.64,4.64,0,0,0-.35-1.84,3,3,0,0,0-1-1.25,2.39,2.39,0,0,0-2.79,0,3,3,0,0,0-1,1.25,4.64,4.64,0,0,0-.35,1.84,4.57,4.57,0,0,0,.35,1.84,3,3,0,0,0,1,1.26A2.23,2.23,0,0,0,606,336Z" style="fill:#939393"/><path d="M614.31,336.94a3.71,3.71,0,0,1-1.22-.9,4.15,4.15,0,0,1-.87-1.5,6.54,6.54,0,0,1-.32-2.13,5.87,5.87,0,0,1,.34-2.13,4.26,4.26,0,0,1,.9-1.45,3.68,3.68,0,0,1,2.62-1.1,3.19,3.19,0,0,1,1.15.2,3.15,3.15,0,0,1,.9.55,2.63,2.63,0,0,1,.61.83v-5.54h1.52v.14a.54.54,0,0,0-.15.26,2.72,2.72,0,0,0,0,.48l0,11c0,.24,0,.48,0,.71a2.62,2.62,0,0,0,.17.71h-1.42a2.26,2.26,0,0,1-.14-.49,4.12,4.12,0,0,1,0-.48c0-.16,0-.32,0-.49a3.53,3.53,0,0,1-.68.85,2.86,2.86,0,0,1-.9.57,2.8,2.8,0,0,1-1.1.2A3.48,3.48,0,0,1,614.31,336.94Zm2.71-1.23a2,2,0,0,0,.74-.75,3.78,3.78,0,0,0,.41-1.13,6.74,6.74,0,0,0,.13-1.38,6,6,0,0,0-.26-1.81,2.67,2.67,0,0,0-.82-1.26,2.17,2.17,0,0,0-1.44-.47,2.44,2.44,0,0,0-1.07.23,2.06,2.06,0,0,0-.78.66,3.2,3.2,0,0,0-.47,1,5.18,5.18,0,0,0-.16,1.36,5.87,5.87,0,0,0,.3,2,2.91,2.91,0,0,0,.88,1.33,2.15,2.15,0,0,0,1.42.47A2.18,2.18,0,0,0,617,335.71Z" style="fill:#939393"/><path d="M622.58,337.07v-1.16h2.7v-11H622.7v-1.16h4v12.14h2.68v1.16Z" style="fill:#939393"/><path d="M633,337.07v-1.16h2.34v-6.82h-2.22v-1.16h3.66v8h2.14v1.16ZM636,326a1,1,0,0,1-1-1,1,1,0,0,1,.29-.74,1,1,0,0,1,.73-.3,1,1,0,0,1,.73.31,1,1,0,0,1,.31.73,1,1,0,0,1-.31.72A1,1,0,0,1,636,326Z" style="fill:#939393"/><path d="M646.44,337.23a5.26,5.26,0,0,1-1.82-.3,3.86,3.86,0,0,1-1.41-.91,4,4,0,0,1-.91-1.48,6,6,0,0,1-.32-2,5.86,5.86,0,0,1,.33-2,4.29,4.29,0,0,1,.9-1.5,3.76,3.76,0,0,1,1.34-.93,4.27,4.27,0,0,1,1.63-.32,4.11,4.11,0,0,1,1.46.26,3.27,3.27,0,0,1,1.18.79,3.75,3.75,0,0,1,.79,1.34,5.91,5.91,0,0,1,.29,1.94c0,.1,0,.21,0,.33l0,.32h-6.5a4.82,4.82,0,0,0,.3,1.52,3,3,0,0,0,.68,1,2.8,2.8,0,0,0,1,.61,3.5,3.5,0,0,0,1.17.19,3.27,3.27,0,0,0,.9-.11,2.63,2.63,0,0,0,.79-.34,2.78,2.78,0,0,0,.67-.57l.8.78a3.58,3.58,0,0,1-.87.78,3.42,3.42,0,0,1-1.07.47A5.06,5.06,0,0,1,646.44,337.23Zm-3-5.64h5a3.69,3.69,0,0,0-.17-1.14,2.45,2.45,0,0,0-.48-.87,2,2,0,0,0-.74-.56,2.5,2.5,0,0,0-1-.19,2.76,2.76,0,0,0-.91.16,2.33,2.33,0,0,0-.79.51,3.09,3.09,0,0,0-.61.86A4.24,4.24,0,0,0,643.42,331.59Z" style="fill:#939393"/><path d="M654.24,329.07h-2v-1.14h2v-.76a4.09,4.09,0,0,1,.43-2,2.7,2.7,0,0,1,1.19-1.15,4,4,0,0,1,1.74-.37,4.31,4.31,0,0,1,1.61.31,3.09,3.09,0,0,1,1.25,1L659.7,326l-.12.16-.12-.08a1.36,1.36,0,0,0-.08-.32,1.4,1.4,0,0,0-.28-.4,2.25,2.25,0,0,0-.64-.4,2.37,2.37,0,0,0-.82-.12,2.34,2.34,0,0,0-1,.23,1.61,1.61,0,0,0-.72.74,3.16,3.16,0,0,0-.26,1.39v.76h3v1.14h-3v8h-1.38Z" style="fill:#939393"/><path d="M441.7,391.16V378.7h1.68l2.64,5.84,2.68-5.86h1.66v12.48h-1.74v-8.94l-2.2,4.74h-.92l-2.08-4.7v8.9Z" style="fill:#939393"/><path d="M455.3,391.32a3.6,3.6,0,0,1-1.05-.15,2.69,2.69,0,0,1-.89-.46,2.79,2.79,0,0,1-.69-.79,3.72,3.72,0,0,1-.44-1.14,6.83,6.83,0,0,1-.15-1.51l0-5.25h2v5.23a4.39,4.39,0,0,0,.13,1.17,2.3,2.3,0,0,0,.36.77,1.41,1.41,0,0,0,.53.42,1.7,1.7,0,0,0,.64.13,2.22,2.22,0,0,0,.82-.16,1.73,1.73,0,0,0,.67-.48,2.14,2.14,0,0,0,.44-.82,4,4,0,0,0,.15-1.16V382h2v7.69q0,.41,0,.75a2.64,2.64,0,0,0,.17.7h-1.86a2.3,2.3,0,0,1-.14-.45,3.49,3.49,0,0,1-.05-.44c0-.15,0-.3,0-.45a2.7,2.7,0,0,1-.49.66,3.3,3.3,0,0,1-.64.47,3.16,3.16,0,0,1-.72.28A3.35,3.35,0,0,1,455.3,391.32Z" style="fill:#939393"/><path d="M464.56,391.16a6.34,6.34,0,0,1-1.39-.48,5.37,5.37,0,0,1-1.19-.82l.92-1.68L463,388l.14.08c0,.1.06.21.1.33a1.29,1.29,0,0,0,.28.41,4,4,0,0,0,1.1.67,4.2,4.2,0,0,0,1.52.25,3.24,3.24,0,0,0,1-.15,1.43,1.43,0,0,0,.67-.4.82.82,0,0,0,.24-.58.74.74,0,0,0-.13-.44,1.51,1.51,0,0,0-.39-.35,3.94,3.94,0,0,0-.68-.33,10.31,10.31,0,0,0-1-.33,10.38,10.38,0,0,1-1.78-.67,3.52,3.52,0,0,1-1.18-.91,2,2,0,0,1-.42-1.26A2,2,0,0,1,463,383a3,3,0,0,1,1.23-.89,5,5,0,0,1,1.9-.33,6.72,6.72,0,0,1,1.13.09,4.85,4.85,0,0,1,1,.27,4.61,4.61,0,0,1,.85.45,5,5,0,0,1,.76.63l-1,1.36-.12.16-.14-.12a.75.75,0,0,0-.09-.3,1.33,1.33,0,0,0-.29-.36,2.89,2.89,0,0,0-1-.48,3.49,3.49,0,0,0-1.06-.16,3.11,3.11,0,0,0-1.23.22.74.74,0,0,0-.53.68.71.71,0,0,0,.23.51,2.26,2.26,0,0,0,.75.46,9.52,9.52,0,0,0,1.42.46,8.65,8.65,0,0,1,1.84.68,2.7,2.7,0,0,1,1,.89,2.16,2.16,0,0,1,.33,1.2,2.52,2.52,01-1.49-1.68,5.87,5.87,0,0,1,0-4.92,4.13,4.13,0,0,1,1.49-1.68,4.24,4.24,0,0,1,4.38,0,4.13,4.13,0,0,1,1.49,1.68,5.87,5.87,0,0,1,0,4.92,4.27,4.27,0,0,1-1.49,1.68A4,4,0,0,1,616,391.32Zm0-1.2a2.28,2.28,0,0,0,1.4-.46,3.14,3.14,0,0,0,1-1.26,4.64,4.64,0,0,0,.35-1.84,4.57,4.57,0,0,0-.35-1.84,3,3,0,0,0-1-1.25,2.39,2.39,0,0,0-2.79,0,2.92,2.92,0,0,0-1,1.25,4.57,4.57,0,0,0-.35,1.84,4.64,4.64,0,0,0,.35,1.84,3.07,3.07,0,0,0,1,1.26A2.3,2.3,0,0,0,616,390.12Z" style="fill:#939393"/><path d="M625.42,391.32a3.4,3.4,0,0,1-1-.16,2.68,2.68,0,0,1-.87-.49,3,3,0,0,1-.67-.82,4.22,4.22,0,0,1-.43-1.2,7.41,7.41,0,0,1-.15-1.57l0-5.06h1.4v5.06a5.53,5.53,0,0,0,.16,1.45,2.63,2.63,0,0,0,.45,1,1.74,1.74,0,0,0,.67.52,2.15,2.15,0,0,0,.8.16,2.29,2.29,0,0,0,1.71-.76,2.6,2.6,0,0,0,.55-1,4.57,4.57,0,0,0,.2-1.41v-5h1.4v7.72c0,.24,0,.47,0,.71a2.71,2.71,0,0,0,.17.71h-1.38a2.43,2.43,0,0,1-.14-.49,4.07,4.07,0,0,1-.05-.49c0-.17,0-.33,0-.48a3.5,3.5,0,0,1-.52.68,3,3,0,0,1-.67.51,3.77,3.77,0,0,1-.78.32A3.45,3.45,0,0,1,625.42,391.32Z" style="fill:#939393"/><path d="M644,390.6a4.91,4.91,0,0,1-1.67-2.19,8.59,8.59,0,0,1-.58-3.29,10.08,10.08,0,0,1,.29-2.75,5.93,5.93,0,0,1,.83-1.86,4.41,4.41,0,0,1,1.16-1.16,4.05,4.05,0,0,1,1.29-.57,4.83,4.83,0,0,1,1.19-.16,4,4,0,0,1,1.45.27,4.89,4.89,0,0,1,1.3.73,3.39,3.39,0,0,1,.93,1.1l-1,.78-.16.14-.08-.12a.46.46,0,0,0-.05-.29,2.34,2.34,0,0,0-.29-.39,3.17,3.17,0,0,0-.62-.56,2,2,0,0,0-.69-.32,3,3,0,0,0-.83-.1,3.58,3.58,0,0,0-1,.15,2.65,2.65,0,0,0-.92.49,3.2,3.2,0,0,0-.74.93,5.06,5.06,0,0,0-.49,1.41,10.36,10.36,0,0,0-.17,2,9.73,9.73,0,0,0,.24,2.28,5.15,5.15,0,0,0,.69,1.66,3.11,3.11,0,0,0,1.08,1,2.94,2.94,0,0,0,1.43.35c.19,0,.38,0,.59,0a4.56,4.56,0,0,0,.62-.13,3.51,3.51,0,0,0,.61-.24,3,3,0,0,0,.54-.35v-2.94h-2.26v-1.22h3.56v4.86a7.2,7.2,0,0,1-1.8,1,5.45,5.45,0,0,1-1.86.33A4.3,4.3,0,0,1,644,390.6Z" style="fill:#939393"/><path d="M656,391.32a4,4,0,0,1-2.19-.61,4.27,4.27,0,0,1-1.49-1.68,5.87,5.87,0,0,1,0-4.92,4.13,4.13,0,0,1,1.49-1.68,4.24,4.24,0,0,1,4.38,0,4.13,4.13,0,0,1,1.49,1.68,5.87,5.87,0,0,1,0,4.92,4.27,4.27,0,0,1-1.49,1.68A4,4,0,0,1,656,391.32Zm0-1.2a2.28,2.28,0,0,0,1.4-.46,3.14,3.14,0,0,0,1-1.26,4.64,4.64,0,0,0,.35-1.84,4.57,4.57,0,0,0-.35-1.84,3,3,0,0,0-1-1.25,2.39,2.39,0,0,0-2.79,0,2.92,2.92,0,0,0-1,1.25,4.57,4.57,0,0,0-.35,1.84,4.64,4.64,0,0,0,.35,1.84,3.07,3.07,0,0,0,1,1.26A2.3,2.3,0,0,0,656,390.12Z" style="fill:#939393"/><path d="M672,378.7h1.36l5.24,9.24V378.7h1.52v.14a.5.5,0,0,0-.15.26,2.57,2.57,0,0,0,0,.48v11.58h-1.1l-5.5-9.8v9.8H672Z" style="fill:#939393"/><path d="M686,391.32a4,4,0,0,1-2.19-.61,4.27,4.27,0,0,1-1.49-1.68,5.87,5.87,0,0,1,0-4.92,4.13,4.13,0,0,1,1.49-1.68,4.24,4.24,0,0,1,4.38,0,4.13,4.13,0,0,1,1.49,1.68,5.87,5.87,0,0,1,0,4.92,4.27,4.27,0,0,1-1.49,1.68A4,4,0,0,1,686,391.32Zm0-1.2a2.28,2.28,0,0,0,1.4-.46,3.14,3.14,0,0,0,1-1.26,4.64,4.64,0,0,0,.35-1.84,4.57,4.57,0,0,0-.35-1.84,3,3,0,0,0-1-1.25,2.39,2.39,0,0,0-2.79,0,2.92,2.92,0,0,0-1,1.25,4.57,4.57,0,0,0-.35,1.84,4.64,4.64,0,0,0,.35,1.84,3.07,3.07,0,0,0,1,1.26A2.3,2.3,0,0,0,686,390.12Z" style="fill:#939393"/><path d="M693.16,391.16,691.32,382h1.26l1.48,7.32,1.56-6.46h.88l1.94,6.44c.17-1.18.32-2.16.43-2.91s.2-1.38.26-1.87.1-.89.12-1.23,0-.66,0-1V382h1.34c-.13,1-.28,2-.43,3.06s-.32,2-.5,3-.38,2-.59,3h-1.36l-1.68-5.91-1.6,5.91Z" style="fill:#939393"/><path d="M445.26,415.15a3.33,3.33,0,0,1-.91-.49,4.05,4.05,0,0,1-.73-.76l-.5,1.26h-.92v-13.3h1.64V402a.5.5,0,0,0-.15.26,2.57,2.57,0,0,0,0,.48v4.7a3.69,3.69,0,0,1,.52-.66,3.29,3.29,0,0,1,.66-.52,3,3,0,0,1,1.54-.44,4,4,0,0,1,1.53.28,3.22,3.22,0,0,1,1.19.88,4.09,4.09,0,0,1,.77,1.45,7,7,0,0,1,.27,2.05,6.52,6.52,0,0,1-.32,2.12,4.33,4.33,0,0,1-.87,1.52,3.75,3.75,0,0,1-1.23.9,3.42,3.42,0,0,1-1.4.3A3.36,3.36,0,0,1,445.26,415.15Zm1.81-1.29a2.25,2.25,0,0,0,.81-.58,3,3,0,0,0,.57-1.08,5.59,5.59,0,0,0,.21-1.64,6,6,0,0,0-.18-1.56,3.15,3.15,0,0,0-.51-1.09,2,2,0,0,0-.79-.65,2.55,2.55,0,0,0-1-.2,2.05,2.05,0,0,0-1.31.44,2.87,2.87,0,0,0-.89,1.25,5,5,0,0,0-.32,1.85,6.7,6.7,0,0,0,.14,1.4,3.45,3.45,0,0,0,.43,1.09,2,2,0,0,0,.76.7,2.64,2.64,0,0,0,2.08.07Z" style="fill:#939393"/><path d="M452.37,418.4a3,3,0,0,1-.93-.58l.62-1,.12-.18.12.08a.7.7,0,0,0,.14.27,2.22,2.22,0,0,0,.38.29,2.34,2.34,0,0,0,.38.09,2.77,2.77,0,0,0,.42,0,1.57,1.57,0,0,0,.91-.26,2.15,2.15,0,0,0,.65-.8,8.21,8.21,0,0,0,.54-1.35l1.74-5.37c.2-.61.39-1.21.58-1.81a9.56,9.56,0,0,0,.38-1.81h1.44a11.53,11.53,0,0,1-.44,1.85c-.2.62-.41,1.25-.64,1.87l-2.28,6.42a3.94,3.94,0,0,1-1.23,1.89,2.9,2.9,0,0,1-1.73.55A3.34,3.34,0,0,1,452.37,418.4ZM451.92,406h1.5l3,7.59-.64,1.78Z" style="fill:#939393"/><path d="M475.16,415.16V404h-3.54V402.7h8.64V404h-3.68v11.2Z" style="fill:#939393"/><path d="M482.46,401.86H484V402a.5.5,0,0,0-.15.26,2.57,2.57,0,0,0,0,.48v4.92a4,4,0,0,1,.85-1,3.8,3.8,0,0,1,1-.64,2.76,2.76,0,0,1,1.11-.23,2.68,2.68,0,0,1,1.45.38,2.41,2.41,0,0,1,1,1.21,5.93,5.93,0,0,1,.35,2.22v5.53h-1.4v-5.49a4.27,4.27,0,0,0-.22-1.53,1.71,1.71,0,0,0-.6-.82,1.57,1.57,0,0,0-.86-.24,2.43,2.43,0,0,0-.74.12,3.06,3.06,0,0,0-.73.35,3.18,3.18,0,0,0-.63.59,2.91,2.91,0,0,0-.44.79,2.76,2.76,0,0,0-.16,1v5.25h-1.4Z" style="fill:#939393"/><path d="M496.44,415.32a5.26,5.26,0,0,1-1.82-.31,3.86,3.86,0,0,1-1.41-.91,3.94,3.94,0,0,1-.91-1.48,6.5,6.5,0,0,1,0-4.06,4.29,4.29,0,0,1,.9-1.5,3.9,3.9,0,0,1,1.34-.93,4.26,4.26,0,0,1,1.63-.31,4.11,4.11,0,0,1,1.46.25,3.27,3.27,0,0,1,1.18.79,3.71,3.71,0,0,1,.79,1.35,5.85,5.85,0,0,1,.29,1.93c0,.1,0,.21,0,.33l0,.33h-6.5a4.76,4.76,0,0,0,.3,1.51,2.94,2.94,0,0,0,.68,1.05,2.64,2.64,0,0,0,1,.6,3.51,3.51,0,0,0,1.17.2,3.7,3.7,0,0,0,.9-.11,3.25,3.25,0,0,0,.79-.34,3.32,3.32,0,0,0,.67-.57l.8.78a4,4,0,0,1-.87.78,3.67,3.67,0,0,1-1.07.47A5.06,5.06,0,0,1,496.44,415.32Zm-3-5.64h5a3.71,3.71,0,0,0-.17-1.15,2.63,2.63,0,0,0-.48-.87,2,2,0,0,0-.74-.55,2.33,2.33,0,0,0-1-.19,2.76,2.76,0,0,0-.91.15,2.33,2.33,0,0,0-.79.51,3,3,0,0,0-.61.87A4.06,4.06,0,0,0,493.42,409.68Z" style="fill:#939393"/><path d="M516,405.78l-3.28,9.38h-1.38l4.6-12.54h.16l4.6,12.54h-1.44Zm2.16,5.78h-4.52l.28-1.08h3.92Z" style="fill:#939393"/><path d="M524.31,415a3.82,3.82,0,0,1-1.22-.89,4.2,4.2,0,0,1-.87-1.51,6.52,6.52,0,0,1-.32-2.12,5.8,5.8,0,0,1,.34-2.13,4.17,4.17,0,0,1,.9-1.45,3.59,3.59,0,0,1,1.24-.84,3.88,3.88,0,0,1,1.38-.26,3,3,0,0,1,1.15.2,2.76,2.76,0,0,1,.9.55,2.52,2.52,0,0,1,.61.83v-5.54h1.52V402a.5.5,0,0,0-.15.26,2.57,2.57,0,0,0,0,.48l0,11c0,.24,0,.47,0,.71a2.71,2.71,0,0,0,.17.71h-1.42a2.34,2.34,0,0,1-.14-.5,3.9.78,5.78,0,0,1-1.3-.48,5.52,5.52,0,0,1-1.13-.8l.8-1.36.12-.18.12.08q0,.15.09.33a1.09,1.09,0,0,0,.27.41,3.47,3.47,0,0,0,1,.69,3.64,3.64,0,0,0,1.51.27,3.8,3.8,0,0,0,1.25-.18,1.81,1.81,0,0,0,.79-.51,1.1,1.1,0,0,0,.28-.76,1.08,1.08,0,0,0-.12-.52,1.21,1.21,0,0,0-.39-.43,4.08,4.08,0,0,0-.71-.4,11.19,11.19,0,0,0-1.08-.4,10,10,0,0,1-1.82-.69,3.55,3.55,0,0,1-1.2-.93,1.87,1.87,0,0,1-.42-1.2,2,2,0,0,1,.38-1.2,2.51,2.51,0,0,1,1.13-.8,5.26,5.26,0,0,1,1.85-.28,6.83,6.83,0,0,1,1.16.09,4.49,4.49,0,0,1,1,.27,4,4,0,0,1,.81.45,5.17,5.17,0,0,1,.71.63l-.82,1-.14.16-.1-.1a.85.85,0,0,0-.09-.31,1.34,1.34,0,0,0-.29-.1,3.91,0,0,1,0-.48c0-.16,0-.32,0-.48a3.74,3.74,0,0,1-.68.85,3.27,3.27,0,0,1-.9.57,3,3,0,0,1-1.1.2A3.32,3.32,0,0,1,524.31,415Zm2.71-1.23a2,2,0,0,0,.74-.75,3.78,3.78,0,0,0,.41-1.13,6.71,6.71,0,0,0,.13-1.37,5.9,5.9,0,0,0-.26-1.81,2.65,2.65,0,0,0-.82-1.27,2.16,2.16,0,0,0-1.44-.46,2.44,2.44,0,0,0-1.07.22,2.18,2.18,0,0,0-.78.67,3.15,3.15,0,0,0-.47,1,5.23,5.23,0,0,0-.16,1.36,6,6,0,0,0,.3,2,2.88,2.88,0,0,0,.88,1.32,2.16,2.16,0,0,0,1.42.48A2.19,2.19,0,0,0,527,413.79Z" style="fill:#939393"/><path d="M535.42,415.16,531.8,406h1.44l3,7.5h-.28l1.62-3.72a20,20,0,0,0,.77-2,14.63,14.63,0,0,0,.43-1.74h1.36a13.91,13.91,0,0,1-.5,1.84q-.35,1-.84,2.16l-2.22,5.14Z" style="fill:#939393"/><path d="M543,415.16V414h2.34v-6.82h-2.22V406h3.66v8h2.14v1.16Zm3-11.06a1,1,0,0,1-1-1,1,1,0,0,1,.29-.74,1,1,0,0,1,.73-.3,1,1,0,0,1,.73.31,1,1,0,0,1,.31.73,1,1,0,0,1-.31.72A1,1,0,0,1,546,404.1Z" style="fill:#939393"/><path d="M554.57,415.16a537,3.24,3.24,0,0,0-1-.55,3.51,3.51,0,0,0-1.12-.19,3.27,3.27,0,0,0-1.38.27.9.9,0,0,0-.58.85,1,1,0,0,0,.21.59,2.22,2.22,0,0,0,.77.57,8.62,8.62,0,0,0,1.6.59,10.65,10.65,0,0,1,1.83.73,2.59,2.59,0,0,1,1,.84,2,2,0,0,1,.31,1.13,2.66,2.66,0,0,1-.41,1.42,2.84,2.84,0,0,1-1.25,1,5,5,0,0,1-2.12.39A6.78,6.78,0,0,1,554.57,415.16Z" style="fill:#939393"/><path d="M566,415.32a4,4,0,0,1-2.19-.61,4.27,4.27,0,0,1-1.49-1.68,5.87,5.87,0,0,1,0-4.92,4.13,4.13,0,0,1,1.49-1.68,4.24,4.24,0,0,1,4.38,0,4.13,4.13,0,0,1,1.49,1.68,5.87,5.87,0,0,1,0,4.92,4.27,4.27,0,0,1-1.49,1.68A4,4,0,0,1,566,415.32Zm0-1.2a2.28,2.28,0,0,0,1.4-.46,3.14,3.14,0,0,0,1-1.26,4.64,4.64,0,0,0,.35-1.84,4.57,4.57,0,0,0-.35-1.84,3,3,0,0,0-1-1.25,2.39,2.39,0,0,0-2.79,0,2.92,2.92,0,0,0-1,1.25,4.57,4.57,0,0,0-.35,1.84,4.64,4.64,0,0,0,.35,1.84,3.07,3.07,0,0,0,1,1.26A2.3,2.3,0,0,0,566,414.12Z" style="fill:#939393"/><path d="M573.38,406h1.5l-.06,2.68-.18-.3a3.14,3.14,0,0,1,1.14-1.91,3.14,3.14,0,0,1,2-.67,3.42,3.42,0,0,1,1.33.25,3,3,0,0,1,1.09.75l-.64,1.12-.08.18-.14-.08a1.5,4.48,4.48,0,0,1,1.45-1,4.76,4.76,0,0,1,1.82-.35,4.37,4.37,0,0,1,2,.45,3.82,3.82,0,0,1,1.45,1.25l-.9.88-.14.14-.1-.1a.6.6,0,0,0-.07-.3,1.65,1.65,0,0,0-.31-.38,2.42,2.42,0,0,0-.94-.56,3.7,3.7,0,0,0-1.16-.16,2.59,2.59,0,0,0-1.1.24,2.66,2.66,0,0,0-.93.68,3.42,3.42,0,0,0-.65,1.08,4.32,4.32,0,0,0,0,2.84,3.57,3.57,0,0,0,.66,1.12,3,3,0,0,0,2.28,1-2.74,5.34,5.34,0,0,1,.66-2.65,5,5,0,0,1,1.78-1.88,4.69,4.69,0,0,1,2.51-.69,4.77,4.77,0,0,1,2.52.69,5.16,5.16,0,0,1,1.8,1.88,5.25,5.25,0,0,1,.67,2.65,5.38,5.38,0,0,1-.67,2.72,4.84,4.84,0,0,1-4.32,2.51Zm0-2.22a1.85,1.85,0,0,0,1.15-.38,2.5,2.5,0,0,0,.78-1,4,4,0,0,0,.29-1.58,4.12,4.12,0,0,0-.29-1.62,2.28,2.28,0,0,0-.78-1,1.9,1.9,0,0,0-1.15-.36,1.84,1.84,0,0,0-1.11.36,2.28,2.28,0,0,0-.78,1,4.12,4.12,0,0,0-.29,1.62,4,4,0,0,0,.29,1.58,2.5,2.5,0,0,0,.78,1A1.8,1.8,0,0,0,611.48,311Z" style="fill:#939393"/><path d="M618.74,303h2.88l0,2.88-.31-.15a3.16,3.16,0,0,1,.35-1.2,3.3,3.3,0,0,1,1.73-1.54,3,3,0,0,1,1.11-.21,4,4,0,0,1,1.58.29,3.72,3.72,0,0,1,1.3.9l-1.16,2.37-.07.18-.22-.09c0-.12-.09-.24-.12-.37a1.27,1.27,0,0,0-.3-.46,3.07,3.07,0,0,0-.66-.38,1.92,1.92,0,0,0-.77-.15,2.84,2.84,0,0,0-1,.16,1.9,1.9,0,0,0-.78.5,2.51,2.51,0,0,0-.53.86,3.65,3.65,0,0,0,3.17,3.17,0,0,0,.88-.13,3.45,3.45,0,0,0,.8-.38,3.65,3.65,0,0,0,.7-.61l.84,1a4.58,4.58,0,0,1-1.51,1.08,4.44,4.44,0,0,1-1.79.36A4.61,4.61,0,0,1,634.86,415Z" style="fill:#939393"/><path d="M642.58,415.16V414h2.7V403H642.7v-1.16h4V414h2.68v1.16Z" style="fill:#939393"/><path d="M656.44,415.32a5.26,5.26,0,0,1-1.82-.31,3.86,3.86,0,0,1-1.41-.91,3.94,3.94,0,0,1-.91-1.48,6.5,6.5,0,0,1,0-4.06,4.29,4.29,0,0,1,.9-1.5,3.9,3.9,0,0,1,1.34-.93,4.26,4.26,0,0,1,1.63-.31,4.11,4.11,0,0,1,1.46.25,3.27,3.27,0,0,1,1.18.79,3.71,3.71,0,0,1,.79,1.35,5.85,5.85,0,0,1,.29,1.93c0,.1,0,.21,0,.33l0,.33h-6.5a4.76,4.76,0,0,0,.3,1.51,2.94,2.94,0,0,0,.68,1.05,2.64,2.64,0,0,0,1,.6,3.51,3.51,0,0,0,1.17.2,3.7,3.7,0,0,0,.9-.11,3.25,3.25,0,0,0,.79-.34,3.32,3.32,0,0,0,.67-.57l.8.78a4,4,0,0,1-.87.78,3.67,3.67,0,0,1-1.07.47A5.06,5.06,0,0,1,656.44,415.32Zm-3-5.64h5a3.71,3.71,0,0,0-.17-1.15,2.63,2.63,0,0,0-.48-.87,2,2,0,0,0-.74-.55,2.33,2.33,0,0,0-1-.19,2.76,2.76,0,0,0-.91.15,2.33,2.33,0,0,0-.79.51,3,3,0,0,0-.61.87A4.06,4.06,0,0,0,653.42,409.68Z" style="fill:#93931.34,1.34,0,0,0-.12-.3,1.19,1.19,0,0,0-.34-.34,1.79,1.79,0,0,0-.59-.27,2.27,2.27,0,0,0-.61-.07,2.94,2.94,0,0,0-1,.18,2.79,2.79,0,0,0-.91.59,2.93,2.93,0,0,0-.65,1,4,4,0,0,0-.24,1.47v4.84h-1.46Z" style="fill:#939393"/><path d="M582.37,418.4a3,3,0,0,1-.93-.58l.62-1,.12-.18.12.08a.7.7,0,0,0,.14.27,2.22,2.22,0,0,0,.38.29,2.34,2.34,0,0,0,.38.09,2.77,2.77,0,0,0,.42,0,1.57,1.57,0,0,0,.91-.26,2.15,2.15,0,0,0,.65-.8,8.21,8.21,0,0,0,.54-1.35l1.74-5.37c.2-.61.39-1.21.58-1.81a9.56,9.56,0,0,0,.38-1.81h1.44a11.53,11.53,0,0,1-.44,1.85c-.2.62-.41,1.25-.64,1.87l-2.28,6.42a3.94,3.94,0,0,1-1.23,1.89,2.9,2.9,0,0,1-1.73.55A3.34,3.34,0,0,1,582.37,418.4ZM581.92,406h1.5l3,7.59-.64,1.78Z" style="fill:#939393"/><path d="M604.8,415a4.19,4.19,0,0,1-1.55-1.15,5.48,5.48,0,0,1-1-2,9.67,9.67,0,0,1-.38-2.86,10.09,10.09,0,0,1,.28-2.55,6.18,6.18,0,0,1,.76-1.83,4.24,4.24,0,0,1,2.4-1.82,4.57,4.57,0,0,1,1.36-.2,3.92,3.92,0,0,1,2.32.67,4,4,0,0,1,1.44,1.79l-1.2.56-.18.08-.06-.14a.36.36,0,0,0,0-.29,3.65,3.65,0,0,0-.22-.41,2.58,2.58,0,0,0-1-.91,2.63,2.63,0,0,0-1.11-.23,2.78,2.78,0,0,0-1.41.35,3.08,3.08,0,0,0-1.08,1,4.85,4.85,0,0,0-.68,1.63,9.53,9.53,0,0,0-.23,2.18,7.93,7.93,0,0,0,.27,2.14,5.88,5.88,0,0,0,.74,1.66,3.64,3.64,0,0,0,1.1,1.08,2.6,2.6,0,0,0,1.35.38,2.69,2.69,0,0,0,1-.18,3,3,0,0,0,.87-.53,3.75,3.75,0,0,0,.68-.81l1,.68a4.49,4.49,0,0,1-1.44,1.52,3.91,3.91,0,0,1-2.06.52A5,5,0,0,1,604.8,415Z" style="fill:#939393"/><path d="M613,415.16V414h2.34v-6.82h-2.22V406h3.66v8h2.14v1.16Zm3-11.06a1,1,0,0,1-1-1,1,1,0,0,1,.29-.74,1,1,0,0,1,.73-.3,1,1,0,0,1,.73.31,1,1,0,0,1,.31.73,1,1,0,0,1-.31.72A1,1,0,0,1,616,404.1Z" style="fill:#939393"/><path d="M623.38,406h1.5l-.06,2.68-.18-.3a3.14,3.14,0,0,1,1.14-1.91,3.14,3.14,0,0,1,2-.67,3.42,3.42,0,0,1,1.33.25,3,3,0,0,1,1.09.75l-.64,1.12-.08.18-.14-.08a1.34,1.34,0,0,0-.12-.3,1.19,1.19,0,0,0-.34-.34,1.79,1.79,0,0,0-.59-.27,2.27,2.27,0,0,0-.61-.07,2.94,2.94,0,0,0-1,.18,2.79,2.79,0,0,0-.91.59,2.93,2.93,0,0,0-.65,1,4,4,0,0,0-.24,1.47v4.84h-1.46Z" style="fill:#939393"/><path d="M634.86,415a4.33,4.33,0,0,1-1.45-1,4.46,4.46,0,0,1-.95-1.5,5.45,5.45,0,0,1,0-3.79,4.67,4.67,0,0,1,.95-93"/></svg>