<?xml version="1.0" encoding="utf-8"?>
<!-- Generator: Adobe Illustrator 26.0.1, SVG Export Plug-In . SVG Version: 6.00 Build 0)  -->
<svg version="1.1" id="Layer_1" xmlns="http://www.w3.org/2000/svg" xmlns:xlink="http://www.w3.org/1999/xlink" x="0px" y="0px"
	 viewBox="0 0 192 120" style="enable-background:new 0 0 192 120;" xml:space="preserve">
<style type="text/css">
	.st0{fill:#00FF00;}
	.st1{font-family:'Pilowlava-Regular';}
	.st2{font-size:30px;}
	.st3{fill:#FF00FF;}
</style>
<text transform="matrix(0.9905 0 0 1 36 76.5)" class="st0 st1 st2">space</text>
<g>
	<g>
		<path d="M23.4,46.6v-6.2h0.7v0.9c0.1-0.2,0.2-0.4,0.3-0.6c0.1-0.1,0.3-0.3,0.5-0.3c0.2-0.1,0.4-0.1,0.6-0.1c0.3,0,0.5,0,0.7,0.1
			c0.2,0.1,0.4,0.2,0.6,0.4c0.2,0.2,0.3,0.4,0.4,0.7c0.1,0.3,0.2,0.6,0.2,1c0,0.4-0.1,0.7-0.2,1.1c-0.1,0.3-0.3,0.6-0.4,0.8
			c-0.2,0.2-0.4,0.4-0.6,0.5S25.8,45,25.5,45c-0.2,0-0.4,0-0.5-0.1c-0.2-0.1-0.3-0.1-0.5-0.2c-0.1-0.1-0.3-0.2-0.4-0.4v2.3H23.4z
			 M25.4,44.3c0.2,0,0.3,0,0.5-0.1s0.3-0.1,0.4-0.3c0.1-0.1,0.2-0.3,0.3-0.5c0.1-0.2,0.1-0.5,0.1-0.8c0-0.4,0-0.7-0.1-0.9
			c-0.1-0.3-0.2-0.4-0.4-0.6c-0.2-0.1-0.4-0.2-0.6-0.2c-0.2,0-0.4,0-0.5,0.1c-0.2,0.1-0.3,0.2-0.4,0.3s-0.2,0.4-0.3,0.6
			s-0.1,0.5-0.1,0.9c0,0.2,0,0.4,0.1,0.6s0.1,0.3,0.2,0.4s0.2,0.2,0.3,0.3s0.2,0.1,0.3,0.2C25.1,44.3,25.3,44.3,25.4,44.3z"/>
		<path d="M29,40.3h0.8l0,1.3l-0.1-0.1c0-0.2,0.1-0.4,0.2-0.6c0.1-0.2,0.2-0.3,0.4-0.4c0.1-0.1,0.3-0.2,0.5-0.2
			c0.2-0.1,0.3-0.1,0.5-0.1c0.2,0,0.5,0,0.7,0.1c0.2,0.1,0.4,0.2,0.5,0.4l-0.3,0.6l0,0.1l-0.1,0c0-0.1,0-0.1-0.1-0.1
			c0,0-0.1-0.1-0.2-0.2c-0.1-0.1-0.2-0.1-0.3-0.1c-0.1,0-0.2,0-0.3,0c-0.2,0-0.3,0-0.5,0.1s-0.3,0.2-0.5,0.3
			c-0.1,0.1-0.2,0.3-0.3,0.5s-0.1,0.5-0.1,0.7v2.4H29V40.3z"/>
		<path d="M35.5,45c-0.3,0-0.6-0.1-0.9-0.2c-0.3-0.1-0.5-0.3-0.7-0.5s-0.3-0.4-0.5-0.7c-0.1-0.3-0.2-0.6-0.2-1c0-0.4,0.1-0.7,0.2-1
			c0.1-0.3,0.3-0.5,0.5-0.8s0.4-0.4,0.7-0.5s0.5-0.2,0.8-0.2c0.3,0,0.5,0,0.7,0.1s0.4,0.2,0.6,0.4c0.2,0.2,0.3,0.4,0.4,0.7
			c0.1,0.3,0.1,0.6,0.1,1c0,0.1,0,0.1,0,0.2s0,0.1,0,0.2H34c0,0.3,0.1,0.5,0.1,0.8c0.1,0.2,0.2,0.4,0.3,0.5c0.1,0.1,0.3,0.2,0.5,0.3
			c0.2,0.1,0.4,0.1,0.6,0.1c0.2,0,0.3,0,0.4-0.1c0.1,0,0.3-0.1,0.4-0.2s0.2-0.2,0.3-0.3l0.4,0.4c-0.1,0.2-0.3,0.3-0.4,0.4
			c-0.2,0.1-0.3,0.2-0.5,0.2C36,44.9,35.8,45,35.5,45z M34,42.1h2.5c0-0.2,0-0.4-0.1-0.6c-0.1-0.2-0.1-0.3-0.2-0.4
			c-0.1-0.1-0.2-0.2-0.4-0.3c-0.1-0.1-0.3-0.1-0.5-0.1c-0.2,0-0.3,0-0.5,0.1c-0.1,0.1-0.3,0.1-0.4,0.3c-0.1,0.1-0.2,0.3-0.3,0.4
			C34.1,41.7,34.1,41.9,34,42.1z"/>
		<path d="M39.6,44.9c-0.2-0.1-0.4-0.1-0.7-0.2c-0.2-0.1-0.4-0.2-0.6-0.4l0.4-0.7l0.1-0.1l0.1,0c0,0.1,0,0.1,0,0.2s0.1,0.1,0.1,0.2
			c0.1,0.1,0.3,0.3,0.5,0.3c0.2,0.1,0.4,0.1,0.8,0.1c0.2,0,0.5,0,0.6-0.1c0.2-0.1,0.3-0.1,0.4-0.3c0.1-0.1,0.1-0.2,0.1-0.4
			c0-0.1,0-0.2-0.1-0.3s-0.1-0.1-0.2-0.2S41.1,43,40.9,43c-0.1-0.1-0.3-0.1-0.5-0.2c-0.3-0.1-0.6-0.2-0.9-0.3
			c-0.3-0.1-0.5-0.3-0.6-0.5c-0.1-0.2-0.2-0.4-0.2-0.6c0-0.2,0.1-0.4,0.2-0.6c0.1-0.2,0.3-0.3,0.6-0.4s0.6-0.1,0.9-0.1
			c0.2,0,0.4,0,0.6,0s0.3,0.1,0.5,0.1c0.1,0.1,0.3,0.1,0.4,0.2c0.1,0.1,0.2,0.2,0.4,0.3l-0.4,0.5l-0.1,0.1l0,0c0-0.1,0-0.1,0-0.2
			c0,0-0.1-0.1-0.1-0.2c-0.2-0.1-0.3-0.2-0.5-0.3c-0.2-0.1-0.4-0.1-0.6-0.1c-0.3,0-0.5,0-0.7,0.1s-0.3,0.2-0.3,0.4
			c0,0.1,0,0.2,0.1,0.3c0.1,0.1,0.2,0.2,0.4,0.3c0.2,0.1,0.5,0.2,0.8,0.3c0.4,0.1,0.7,0.2,0.9,0.4c0.2,0.1,0.4,0.3,0.5,0.4
			c0.1,0.2,0.2,0.3,0.2,0.6c0,0.3-0.1,0.5-0.2,0.7s-0.3,0.4-0.6,0.5c-0.3,0.1-0.6,0.2-1.1,0.2C40.1,45,39.8,44.9,39.6,44.9z"/>
		<path d="M44.6,44.9c-0.2-0.1-0.4-0.1-0.7-0.2c-0.2-0.1-0.4-0.2-0.6-0.4l0.4-0.7l0.1-0.1l0.1,0c0,0.1,0,0.1,0,0.2s0.1,0.1,0.1,0.2
			c0.1,0.1,0.3,0.3,0.5,0.3c0.2,0.1,0.4,0.1,0.8,0.1c0.2,0,0.5,0,0.6-0.1c0.2-0.1,0.3-0.1,0.4-0.3c0.1-0.1,0.1-0.2,0.1-0.4
			c0-0.1,0-0.2-0.1-0.3s-0.1-0.1-0.2-0.2S46.1,43,45.9,43c-0.1-0.1-0.3-0.1-0.5-0.2c-0.3-0.1-0.6-0.2-0.9-0.3
			c-0.3-0.1-0.5-0.3-0.6-0.5c-0.1-0.2-0.2-0.4-0.2-0.6c0-0.2,0.1-0.4,0.2-0.6c0.1-0.2,0.3-0.3,0.6-0.4s0.6-0.1,0.9-0.1
			c0.2,0,0.4,0,0.6,0s0.3,0.1,0.5,0.1c0.1,0.1,0.3,0.1,0.4,0.2c0.1,0.1,0.2,0.2,0.4,0.3l-0.4,0.5l-0.1,0.1l0,0c0-0.1,0-0.1,0-0.2
			c0,0-0.1-0.1-0.1-0.2c-0.2-0.1-0.3-0.2-0.5-0.3c-0.2-0.1-0.4-0.1-0.6-0.1c-0.3,0-0.5,0-0.7,0.1s-0.3,0.2-0.3,0.4
			c0,0.1,0,0.2,0.1,0.3c0.1,0.1,0.2,0.2,0.4,0.3c0.2,0.1,0.5,0.2,0.8,0.3c0.4,0.1,0.7,0.2,0.9,0.4c0.2,0.1,0.4,0.3,0.5,0.4
			c0.1,0.2,0.2,0.3,0.2,0.6c0,0.3-0.1,0.5-0.2,0.7s-0.3,0.4-0.6,0.5c-0.3,0.1-0.6,0.2-1.1,0.2C45.1,45,44.8,44.9,44.6,44.9z"/>
	</g>
</g>
<g>
	<g>
		<path d="M130.5,85.2h3.3v0.6h-3.3V85.2z M132.1,89.7c-0.2-0.1-0.3-0.3-0.4-0.5c-0.1-0.2-0.2-0.5-0.2-0.8c0-0.3,0-0.7,0-1.1
			l0.1-3.3l0.8-0.1l0.1,0l0,0.1c0,0-0.1,0.1-0.1,0.1c0,0,0,0.1-0.1,0.2l-0.1,1.1l0,0.2l-0.1,1.7c0,0.5,0,0.9,0,1.2
			c0,0.3,0.1,0.5,0.2,0.6s0.3,0.2,0.5,0.2c0.2,0,0.4,0,0.6-0.1c0.2-0.1,0.3-0.2,0.5-0.3l0.2,0.6c-0.2,0.2-0.5,0.3-0.7,0.4
			c-0.2,0.1-0.5,0.1-0.8,0.1C132.5,89.9,132.3,89.8,132.1,89.7z"/>
		<path d="M137.3,89.9c-0.4,0-0.8-0.1-1.1-0.3c-0.3-0.2-0.6-0.5-0.7-0.8c-0.2-0.4-0.3-0.8-0.3-1.2c0-0.5,0.1-0.9,0.3-1.2
			c0.2-0.4,0.4-0.6,0.7-0.8c0.3-0.2,0.7-0.3,1.1-0.3c0.4,0,0.8,0.1,1.1,0.3c0.3,0.2,0.6,0.5,0.7,0.8s0.3,0.8,0.3,1.2
			c0,0.5-0.1,0.9-0.3,1.2s-0.4,0.6-0.7,0.8S137.7,89.9,137.3,89.9z M137.3,89.3c0.3,0,0.5-0.1,0.7-0.2c0.2-0.2,0.4-0.4,0.5-0.6
			c0.1-0.3,0.2-0.6,0.2-0.9s-0.1-0.7-0.2-0.9c-0.1-0.3-0.3-0.5-0.5-0.6c-0.2-0.2-0.4-0.2-0.7-0.2c-0.3,0-0.5,0.1-0.7,0.2
			s-0.4,0.4-0.5,0.6c-0.1,0.3-0.2,0.6-0.2,0.9s0.1,0.7,0.2,0.9c0.1,0.3,0.3,0.5,0.5,0.6S137.1,89.3,137.3,89.3z"/>
		<path d="M146.6,89.8c-0.2-0.1-0.4-0.1-0.7-0.2c-0.2-0.1-0.4-0.2-0.6-0.4l0.4-0.7l0.1-0.1l0.1,0c0,0.1,0,0.1,0,0.2s0.1,0.1,0.1,0.2
			c0.1,0.1,0.3,0.3,0.5,0.3c0.2,0.1,0.4,0.1,0.8,0.1c0.2,0,0.5,0,0.6-0.1c0.2-0.1,0.3-0.1,0.4-0.3c0.1-0.1,0.1-0.2,0.1-0.4
			c0-0.1,0-0.2-0.1-0.3s-0.1-0.1-0.2-0.2s-0.2-0.1-0.4-0.2c-0.1-0.1-0.3-0.1-0.5-0.2c-0.3-0.1-0.7-0.2-0.9-0.3
			c-0.3-0.1-0.5-0.3-0.6-0.5c-0.1-0.2-0.2-0.4-0.2-0.6c0-0.2,0.1-0.4,0.2-0.6s0.3-0.3,0.6-0.4c0.2-0.1,0.6-0.1,0.9-0.1
			c0.2,0,0.4,0,0.6,0c0.2,0,0.3,0.1,0.5,0.1c0.1,0.1,0.3,0.1,0.4,0.2s0.2,0.2,0.4,0.3l-0.4,0.5l-0.1,0.1l0,0c0-0.1,0-0.1,0-0.2
			c0,0-0.1-0.1-0.1-0.2c-0.2-0.1-0.3-0.2-0.5-0.3c-0.2-0.1-0.4-0.1-0.6-0.1c-0.3,0-0.5,0-0.7,0.1c-0.2,0.1-0.3,0.2-0.3,0.4
			c0,0.1,0,0.2,0.1,0.3c0.1,0.1,0.2,0.2,0.4,0.3c0.2,0.1,0.5,0.2,0.8,0.3c0.4,0.1,0.7,0.2,0.9,0.4c0.2,0.1,0.4,0.3,0.5,0.4
			c0.1,0.2,0.2,0.3,0.2,0.6c0,0.3-0.1,0.5-0.2,0.7s-0.3,0.4-0.6,0.5c-0.3,0.1-0.6,0.2-1.1,0.2C147.1,89.9,146.8,89.8,146.6,89.8z"/>
		<path d="M150.5,85.2h3.3v0.6h-3.3V85.2z M152.1,89.7c-0.2-0.1-0.3-0.3-0.4-0.5c-0.1-0.2-0.2-0.5-0.2-0.8c0-0.3,0-0.7,0-1.1
			l0.1-3.3l0.8-0.1l0.1,0l0,0.1c0,0-0.1,0.1-0.1,0.1c0,0,0,0.1-0.1,0.2l-0.1,1.1l0,0.2l-0.1,1.7c0,0.5,0,0.9,0,1.2
			c0,0.3,0.1,0.5,0.2,0.6s0.3,0.2,0.5,0.2c0.2,0,0.4,0,0.6-0.1c0.2-0.1,0.3-0.2,0.5-0.3l0.2,0.6c-0.2,0.2-0.5,0.3-0.7,0.4
			c-0.2,0.1-0.5,0.1-0.8,0.1C152.5,89.9,152.3,89.8,152.1,89.7z"/>
		<path d="M156.9,89.9c-0.5,0-0.9-0.1-1.2-0.4c-0.3-0.2-0.4-0.5-0.4-0.9c0-0.2,0.1-0.5,0.2-0.7s0.3-0.4,0.5-0.5
			c0.2-0.1,0.5-0.2,0.7-0.3c0.3-0.1,0.6-0.1,0.9-0.1c0.1,0,0.2,0,0.3,0c0.1,0,0.2,0,0.4,0c0.1,0,0.3,0,0.4,0l0,0.5
			c-0.1,0-0.2,0-0.4,0c-0.1,0-0.2,0-0.4,0c-0.1,0-0.2,0-0.4,0c-0.2,0-0.5,0-0.7,0.1c-0.2,0-0.4,0.1-0.5,0.2
			c-0.1,0.1-0.3,0.2-0.3,0.3s-0.1,0.3-0.1,0.5c0,0.1,0,0.3,0.1,0.4c0,0.1,0.1,0.2,0.2,0.2c0.1,0.1,0.2,0.1,0.3,0.1
			c0.1,0,0.2,0,0.4,0c0.3,0,0.5,0,0.7-0.1c0.2-0.1,0.4-0.2,0.5-0.4c0.1-0.2,0.3-0.4,0.3-0.6s0.1-0.5,0.1-0.8c0-0.5-0.1-0.8-0.2-1.1
			s-0.3-0.4-0.5-0.5s-0.5-0.2-0.8-0.2c-0.2,0-0.4,0-0.6,0.1c-0.2,0.1-0.4,0.2-0.6,0.4l-0.4-0.5c0.2-0.2,0.5-0.4,0.7-0.5
			s0.6-0.2,0.9-0.2c0.3,0,0.6,0,0.8,0.1c0.2,0.1,0.5,0.2,0.6,0.4c0.2,0.2,0.3,0.4,0.4,0.7c0.1,0.3,0.1,0.6,0.1,1.1v2.4h-0.8v-0.7
			c-0.1,0.2-0.2,0.3-0.3,0.4c-0.1,0.1-0.3,0.2-0.4,0.2c-0.1,0.1-0.3,0.1-0.4,0.1C157.2,89.9,157.1,89.9,156.9,89.9z"/>
		<path d="M161,85.2h0.8l0,1.3l-0.1-0.2c0-0.2,0.1-0.4,0.2-0.5c0.1-0.2,0.2-0.3,0.4-0.4c0.1-0.1,0.3-0.2,0.5-0.2s0.3-0.1,0.5-0.1
			c0.2,0,0.5,0,0.7,0.1c0.2,0.1,0.4,0.2,0.5,0.4l-0.3,0.6l0,0.1l-0.1,0c0-0.1,0-0.1-0.1-0.2c0,0-0.1-0.1-0.2-0.2
			c-0.1-0.1-0.2-0.1-0.3-0.1s-0.2,0-0.3,0c-0.2,0-0.3,0-0.5,0.1c-0.2,0.1-0.3,0.2-0.5,0.3c-0.1,0.1-0.2,0.3-0.3,0.5
			c-0.1,0.2-0.1,0.5-0.1,0.7v2.4H161V85.2z"/>
		<path d="M165.5,85.2h3.3v0.6h-3.3V85.2z M167.1,89.7c-0.2-0.1-0.3-0.3-0.4-0.5c-0.1-0.2-0.2-0.5-0.2-0.8c0-0.3,0-0.7,0-1.1
			l0.1-3.3l0.8-0.1l0.1,0l0,0.1c0,0-0.1,0.1-0.1,0.1c0,0,0,0.1-0.1,0.2l-0.1,1.1l0,0.2l-0.1,1.7c0,0.5,0,0.9,0,1.2
			c0,0.3,0.1,0.5,0.2,0.6s0.3,0.2,0.5,0.2c0.2,0,0.4,0,0.6-0.1c0.2-0.1,0.3-0.2,0.5-0.3l0.2,0.6c-0.2,0.2-0.5,0.3-0.7,0.4
			c-0.2,0.1-0.5,0.1-0.8,0.1C167.5,89.9,167.3,89.8,167.1,89.7z"/>
	</g>
</g>
<g>
	<g>
		<g>
			<path class="st3" d="M10.6,18.6l-1.2-7.5h0.8l0.8,5.1l1.2-4.5h0.3l1.2,4.5l0.7-5.1h0.7l-1.2,7.5h-0.3l-1.3-4.9L11,18.6H10.6z"/>
			<path class="st3" d="M18.5,18.7c-0.4,0-0.8-0.1-1.1-0.2s-0.6-0.3-0.8-0.5c-0.2-0.2-0.4-0.5-0.5-0.9c-0.1-0.4-0.2-0.8-0.2-1.2
				c0-0.5,0.1-0.9,0.2-1.2c0.1-0.4,0.3-0.7,0.5-0.9c0.2-0.2,0.5-0.4,0.8-0.6s0.6-0.2,1-0.2c0.3,0,0.6,0.1,0.9,0.2s0.5,0.3,0.7,0.5
				c0.2,0.2,0.4,0.5,0.5,0.8c0.1,0.3,0.2,0.7,0.2,1.2c0,0.1,0,0.1,0,0.2c0,0.1,0,0.1,0,0.2h-3.9c0,0.3,0.1,0.7,0.2,0.9
				c0.1,0.3,0.2,0.5,0.4,0.6s0.4,0.3,0.6,0.4c0.2,0.1,0.5,0.1,0.7,0.1c0.2,0,0.4,0,0.5-0.1s0.3-0.1,0.5-0.2c0.1-0.1,0.3-0.2,0.4-0.3
				l0.5,0.5c-0.2,0.2-0.3,0.3-0.5,0.5c-0.2,0.1-0.4,0.2-0.6,0.3S18.7,18.7,18.5,18.7z M16.7,15.3h3c0-0.3,0-0.5-0.1-0.7
				c-0.1-0.2-0.2-0.4-0.3-0.5c-0.1-0.1-0.3-0.3-0.4-0.3c-0.2-0.1-0.4-0.1-0.6-0.1c-0.2,0-0.4,0-0.5,0.1s-0.3,0.2-0.5,0.3
				c-0.1,0.1-0.3,0.3-0.4,0.5C16.8,14.7,16.7,15,16.7,15.3z"/>
			<path class="st3" d="M22.1,18.6v-0.7h1.6v-6.6h-1.5v-0.7h2.4v7.3h1.6v0.7H22.1z"/>
			<path class="st3" d="M29.5,18.5c-0.3-0.1-0.6-0.3-0.9-0.6c-0.2-0.3-0.4-0.6-0.6-0.9c-0.1-0.3-0.2-0.7-0.2-1.1
				c0-0.4,0.1-0.8,0.2-1.1c0.1-0.3,0.3-0.6,0.6-0.9c0.2-0.3,0.5-0.5,0.9-0.6c0.3-0.1,0.7-0.2,1.1-0.2c0.4,0,0.8,0.1,1.2,0.3
				s0.6,0.4,0.9,0.8l-0.5,0.5l-0.1,0.1L32,14.5c0-0.1,0-0.1,0-0.2c0-0.1-0.1-0.1-0.2-0.2c-0.2-0.2-0.4-0.3-0.6-0.3
				c-0.2-0.1-0.4-0.1-0.7-0.1c-0.2,0-0.5,0-0.7,0.1c-0.2,0.1-0.4,0.2-0.6,0.4c-0.2,0.2-0.3,0.4-0.4,0.7c-0.1,0.3-0.1,0.5-0.1,0.8
				c0,0.3,0,0.6,0.1,0.9c0.1,0.3,0.2,0.5,0.4,0.7s0.4,0.3,0.6,0.4c0.2,0.1,0.5,0.2,0.8,0.2c0.2,0,0.4,0,0.5-0.1
				c0.2-0.1,0.3-0.1,0.5-0.2c0.2-0.1,0.3-0.2,0.4-0.4l0.5,0.6c-0.3,0.3-0.6,0.5-0.9,0.6c-0.3,0.1-0.7,0.2-1.1,0.2
				C30.2,18.7,29.9,18.6,29.5,18.5z"/>
			<path class="st3" d="M36.2,18.7c-0.5,0-0.9-0.1-1.3-0.4s-0.7-0.6-0.9-1c-0.2-0.4-0.3-0.9-0.3-1.5c0-0.6,0.1-1.1,0.3-1.5
				c0.2-0.4,0.5-0.8,0.9-1s0.8-0.4,1.3-0.4s0.9,0.1,1.3,0.4s0.7,0.6,0.9,1c0.2,0.4,0.3,0.9,0.3,1.5c0,0.6-0.1,1-0.3,1.5
				c-0.2,0.4-0.5,0.8-0.9,1S36.7,18.7,36.2,18.7z M36.2,17.9c0.3,0,0.6-0.1,0.8-0.3c0.2-0.2,0.4-0.4,0.6-0.8
				c0.1-0.3,0.2-0.7,0.2-1.1s-0.1-0.8-0.2-1.1c-0.1-0.3-0.3-0.6-0.6-0.8c-0.2-0.2-0.5-0.3-0.8-0.3c-0.3,0-0.6,0.1-0.8,0.3
				c-0.2,0.2-0.4,0.4-0.6,0.8c-0.1,0.3-0.2,0.7-0.2,1.1s0.1,0.8,0.2,1.1c0.1,0.3,0.3,0.6,0.6,0.8S35.9,17.9,36.2,17.9z"/>
			<path class="st3" d="M39.7,18.6v-5.5h0.8v0.6c0.1-0.1,0.2-0.3,0.3-0.4c0.1-0.1,0.2-0.2,0.4-0.2c0.1-0.1,0.3-0.1,0.4-0.1
				c0.2,0,0.3,0,0.4,0.1c0.1,0.1,0.2,0.2,0.3,0.3c0.1,0.1,0.2,0.3,0.2,0.4c0.1-0.2,0.2-0.3,0.3-0.4c0.1-0.1,0.3-0.2,0.4-0.3
				s0.3-0.1,0.5-0.1c0.2,0,0.3,0,0.5,0.1c0.1,0.1,0.2,0.2,0.3,0.3c0.1,0.1,0.2,0.3,0.2,0.4s0.1,0.4,0,0.6v4.2H44v-3.9
				c0-0.3,0-0.6-0.1-0.7c0-0.2-0.1-0.2-0.2-0.3s-0.2-0.1-0.3-0.1c-0.2,0-0.3,0.1-0.4,0.2s-0.2,0.3-0.3,0.5c-0.1,0.2-0.1,0.4-0.1,0.6
				v3.6h-0.8v-3.8c0-0.5,0-0.8-0.1-0.9c-0.1-0.2-0.2-0.2-0.5-0.2c-0.1,0-0.2,0-0.3,0.1c-0.1,0.1-0.2,0.1-0.3,0.3
				c-0.1,0.1-0.1,0.2-0.2,0.4c0,0.2-0.1,0.3-0.1,0.6v3.7H39.7z"/>
			<path class="st3" d="M48.5,18.7c-0.4,0-0.8-0.1-1.1-0.2s-0.6-0.3-0.8-0.5c-0.2-0.2-0.4-0.5-0.5-0.9c-0.1-0.4-0.2-0.8-0.2-1.2
				c0-0.5,0.1-0.9,0.2-1.2c0.1-0.4,0.3-0.7,0.5-0.9c0.2-0.2,0.5-0.4,0.8-0.6s0.6-0.2,1-0.2c0.3,0,0.6,0.1,0.9,0.2s0.5,0.3,0.7,0.5
				c0.2,0.2,0.4,0.5,0.5,0.8c0.1,0.3,0.2,0.7,0.2,1.2c0,0.1,0,0.1,0,0.2c0,0.1,0,0.1,0,0.2h-3.9c0,0.3,0.1,0.7,0.2,0.9
				c0.1,0.3,0.2,0.5,0.4,0.6s0.4,0.3,0.6,0.4c0.2,0.1,0.5,0.1,0.7,0.1c0.2,0,0.4,0,0.5-0.1s0.3-0.1,0.5-0.2c0.1-0.1,0.3-0.2,0.4-0.3
				l0.5,0.5c-0.2,0.2-0.3,0.3-0.5,0.5c-0.2,0.1-0.4,0.2-0.6,0.3S48.7,18.7,48.5,18.7z M46.7,15.3h3c0-0.3,0-0.5-0.1-0.7
				c-0.1-0.2-0.2-0.4-0.3-0.5c-0.1-0.1-0.3-0.3-0.4-0.3c-0.2-0.1-0.4-0.1-0.6-0.1c-0.2,0-0.4,0-0.5,0.1s-0.3,0.2-0.5,0.3
				c-0.1,0.1-0.3,0.3-0.4,0.5C46.8,14.7,46.7,15,46.7,15.3z"/>
			<path class="st3" d="M58,13.1H62v0.7H58V13.1z M59.9,18.5c-0.2-0.1-0.4-0.3-0.5-0.6s-0.2-0.6-0.2-1c0-0.4,0-0.8,0-1.4l0.1-3.9
				l0.9-0.1l0.1,0l0,0.1c0,0.1-0.1,0.1-0.1,0.2c0,0.1-0.1,0.2-0.1,0.3L60,13.5l0,0.2l-0.1,2c0,0.6,0,1.1,0,1.4
				c0.1,0.3,0.2,0.6,0.3,0.7c0.1,0.1,0.3,0.2,0.6,0.2c0.3,0,0.5-0.1,0.7-0.2s0.4-0.2,0.6-0.4l0.3,0.7c-0.3,0.2-0.6,0.3-0.8,0.4
				c-0.3,0.1-0.6,0.1-0.9,0.1C60.4,18.7,60.1,18.6,59.9,18.5z"/>
			<path class="st3" d="M66.2,18.7c-0.5,0-0.9-0.1-1.3-0.4s-0.7-0.6-0.9-1c-0.2-0.4-0.3-0.9-0.3-1.5c0-0.6,0.1-1.1,0.3-1.5
				c0.2-0.4,0.5-0.8,0.9-1s0.8-0.4,1.3-0.4s0.9,0.1,1.3,0.4s0.7,0.6,0.9,1c0.2,0.4,0.3,0.9,0.3,1.5c0,0.6-0.1,1-0.3,1.5
				c-0.2,0.4-0.5,0.8-0.9,1S66.7,18.7,66.2,18.7z M66.2,17.9c0.3,0,0.6-0.1,0.8-0.3c0.2-0.2,0.4-0.4,0.6-0.8
				c0.1-0.3,0.2-0.7,0.2-1.1s-0.1-0.8-0.2-1.1c-0.1-0.3-0.3-0.6-0.6-0.8c-0.2-0.2-0.5-0.3-0.8-0.3c-0.3,0-0.6,0.1-0.8,0.3
				c-0.2,0.2-0.4,0.4-0.6,0.8c-0.1,0.3-0.2,0.7-0.2,1.1s0.1,0.8,0.2,1.1c0.1,0.3,0.3,0.6,0.6,0.8S65.9,17.9,66.2,17.9z"/>
			<path class="st3" d="M77.5,18.5c-0.3-0.1-0.6-0.3-0.9-0.6c-0.2-0.3-0.4-0.6-0.6-0.9c-0.1-0.3-0.2-0.7-0.2-1.1
				c0-0.4,0.1-0.8,0.2-1.1c0.1-0.3,0.3-0.6,0.6-0.9c0.2-0.3,0.5-0.5,0.9-0.6c0.3-0.1,0.7-0.2,1.1-0.2c0.4,0,0.8,0.1,1.2,0.3
				s0.6,0.4,0.9,0.8l-0.5,0.5l-0.1,0.1L80,14.5c0-0.1,0-0.1,0-0.2c0-0.1-0.1-0.1-0.2-0.2c-0.2-0.2-0.4-0.3-0.6-0.3
				c-0.2-0.1-0.4-0.1-0.7-0.1c-0.2,0-0.5,0-0.7,0.1c-0.2,0.1-0.4,0.2-0.6,0.4c-0.2,0.2-0.3,0.4-0.4,0.7c-0.1,0.3-0.1,0.5-0.1,0.8
				c0,0.3,0,0.6,0.1,0.9c0.1,0.3,0.2,0.5,0.4,0.7s0.4,0.3,0.6,0.4c0.2,0.1,0.5,0.2,0.8,0.2c0.2,0,0.4,0,0.5-0.1
				c0.2-0.1,0.3-0.1,0.5-0.2c0.2-0.1,0.3-0.2,0.4-0.4l0.5,0.6c-0.3,0.3-0.6,0.5-0.9,0.6c-0.3,0.1-0.7,0.2-1.1,0.2
				C78.2,18.7,77.9,18.6,77.5,18.5z"/>
			<path class="st3" d="M82.1,10.6h0.8H83v0.1c0,0-0.1,0.1-0.1,0.2c0,0.1,0,0.2,0,0.3v3c0.1-0.2,0.3-0.4,0.5-0.6
				c0.2-0.2,0.4-0.3,0.6-0.4c0.2-0.1,0.4-0.1,0.7-0.1c0.3,0,0.6,0.1,0.9,0.2c0.3,0.2,0.4,0.4,0.6,0.7c0.1,0.3,0.2,0.8,0.2,1.3v3.3
				h-0.8v-3.3c0-0.4,0-0.7-0.1-0.9s-0.2-0.4-0.4-0.5c-0.2-0.1-0.3-0.1-0.5-0.1c-0.1,0-0.3,0-0.4,0.1c-0.2,0-0.3,0.1-0.4,0.2
				c-0.1,0.1-0.3,0.2-0.4,0.4c-0.1,0.1-0.2,0.3-0.3,0.5c-0.1,0.2-0.1,0.4-0.1,0.6v3.1h-0.8V10.6z"/>
			<path class="st3" d="M89.7,18.7c-0.6,0-1.1-0.1-1.4-0.4c-0.3-0.3-0.5-0.6-0.5-1.1c0-0.3,0.1-0.6,0.2-0.8c0.1-0.2,0.3-0.4,0.6-0.6
				s0.5-0.3,0.9-0.4c0.3-0.1,0.7-0.1,1.1-0.1c0.1,0,0.3,0,0.4,0c0.1,0,0.3,0,0.4,0c0.2,0,0.3,0,0.5,0.1l0,0.7c-0.1,0-0.3,0-0.4-0.1
				c-0.1,0-0.3,0-0.4,0c-0.1,0-0.3,0-0.4,0c-0.3,0-0.6,0-0.8,0.1s-0.4,0.1-0.6,0.2c-0.2,0.1-0.3,0.2-0.4,0.4
				c-0.1,0.2-0.1,0.3-0.1,0.5c0,0.2,0,0.3,0.1,0.4s0.1,0.2,0.2,0.3c0.1,0.1,0.2,0.1,0.4,0.1c0.1,0,0.3,0,0.5,0c0.3,0,0.6,0,0.8-0.1
				c0.2-0.1,0.5-0.2,0.6-0.4s0.3-0.4,0.4-0.7s0.1-0.6,0.1-1c0-0.5-0.1-1-0.2-1.3c-0.1-0.3-0.3-0.5-0.6-0.6s-0.6-0.2-1-0.2
				c-0.3,0-0.5,0.1-0.8,0.1c-0.3,0.1-0.5,0.3-0.7,0.5l-0.4-0.6c0.3-0.3,0.6-0.4,0.9-0.6s0.7-0.2,1.1-0.2c0.4,0,0.7,0,1,0.1
				c0.3,0.1,0.5,0.2,0.8,0.4c0.2,0.2,0.4,0.5,0.5,0.8s0.2,0.8,0.2,1.3v2.9h-0.9v-0.9c-0.1,0.2-0.2,0.4-0.4,0.5
				c-0.1,0.1-0.3,0.2-0.5,0.3s-0.3,0.1-0.5,0.1C90.1,18.7,89.9,18.7,89.7,18.7z"/>
			<path class="st3" d="M96.2,18.7c-0.5,0-0.9-0.1-1.3-0.4s-0.7-0.6-0.9-1c-0.2-0.4-0.3-0.9-0.3-1.5c0-0.6,0.1-1.1,0.3-1.5
				c0.2-0.4,0.5-0.8,0.9-1s0.8-0.4,1.3-0.4c0.5,0,0.9,0.1,1.3,0.4c0.4,0.2,0.7,0.6,0.9,1c0.2,0.4,0.3,0.9,0.3,1.5
				c0,0.6-0.1,1-0.3,1.5c-0.2,0.4-0.5,0.8-0.9,1C97.1,18.5,96.7,18.7,96.2,18.7z M96.2,17.9c0.3,0,0.6-0.1,0.8-0.3s0.4-0.4,0.6-0.8
				c0.1-0.3,0.2-0.7,0.2-1.1s-0.1-0.8-0.2-1.1c-0.1-0.3-0.3-0.6-0.6-0.8c-0.2-0.2-0.5-0.3-0.8-0.3c-0.3,0-0.6,0.1-0.8,0.3
				c-0.2,0.2-0.4,0.4-0.6,0.8c-0.1,0.3-0.2,0.7-0.2,1.1s0.1,0.8,0.2,1.1c0.1,0.3,0.3,0.6,0.6,0.8S95.9,17.9,96.2,17.9z"/>
			<path class="st3" d="M101.3,18.6c-0.3-0.1-0.5-0.2-0.8-0.3c-0.2-0.1-0.5-0.3-0.7-0.5l0.5-0.8l0.1-0.1l0.1,0c0,0.1,0,0.1,0.1,0.2
				c0,0.1,0.1,0.1,0.2,0.2c0.2,0.2,0.4,0.3,0.6,0.4s0.5,0.2,0.9,0.2c0.3,0,0.5,0,0.8-0.1c0.2-0.1,0.4-0.2,0.5-0.3s0.2-0.3,0.2-0.5
				c0-0.1,0-0.2-0.1-0.3c0-0.1-0.1-0.2-0.2-0.3s-0.2-0.2-0.4-0.2c-0.2-0.1-0.4-0.2-0.6-0.2c-0.4-0.1-0.8-0.3-1.1-0.4
				c-0.3-0.2-0.6-0.3-0.7-0.6c-0.2-0.2-0.3-0.5-0.3-0.7c0-0.3,0.1-0.5,0.2-0.7s0.4-0.4,0.7-0.5c0.3-0.1,0.7-0.2,1.1-0.2
				c0.3,0,0.5,0,0.7,0.1c0.2,0,0.4,0.1,0.6,0.2c0.2,0.1,0.3,0.2,0.5,0.3c0.1,0.1,0.3,0.2,0.4,0.4l-0.5,0.6l-0.1,0.1l-0.1-0.1
				c0-0.1,0-0.1-0.1-0.2c0-0.1-0.1-0.1-0.2-0.2c-0.2-0.1-0.4-0.3-0.6-0.3c-0.2-0.1-0.5-0.1-0.7-0.1c-0.3,0-0.6,0.1-0.8,0.2
				c-0.2,0.1-0.3,0.3-0.3,0.5c0,0.1,0,0.2,0.1,0.4s0.2,0.2,0.5,0.3c0.2,0.1,0.5,0.2,1,0.4c0.5,0.1,0.8,0.3,1.1,0.4
				c0.3,0.1,0.5,0.3,0.6,0.5c0.1,0.2,0.2,0.4,0.2,0.7c0,0.3-0.1,0.6-0.2,0.8c-0.2,0.3-0.4,0.5-0.8,0.6c-0.3,0.2-0.8,0.2-1.3,0.2
				C101.9,18.7,101.6,18.6,101.3,18.6z"/>
			<path class="st3" d="M111.9,20.6v-7.5h0.9v1.1c0.1-0.3,0.2-0.5,0.4-0.7s0.4-0.3,0.6-0.4s0.5-0.1,0.7-0.1c0.3,0,0.6,0.1,0.9,0.2
				c0.3,0.1,0.5,0.3,0.7,0.5s0.4,0.5,0.5,0.9s0.2,0.8,0.2,1.2s-0.1,0.9-0.2,1.3c-0.1,0.4-0.3,0.7-0.5,0.9s-0.5,0.4-0.7,0.5
				s-0.6,0.2-0.8,0.2c-0.2,0-0.4,0-0.6-0.1s-0.4-0.2-0.6-0.3c-0.2-0.1-0.3-0.3-0.4-0.5v2.8H111.9z M114.3,17.9c0.2,0,0.4,0,0.6-0.1
				c0.2-0.1,0.4-0.2,0.5-0.3c0.2-0.2,0.3-0.4,0.4-0.6c0.1-0.3,0.1-0.6,0.1-1c0-0.4-0.1-0.8-0.2-1.1c-0.1-0.3-0.3-0.5-0.5-0.7
				s-0.5-0.3-0.8-0.3c-0.2,0-0.4,0-0.6,0.1c-0.2,0.1-0.4,0.2-0.5,0.4c-0.2,0.2-0.3,0.4-0.4,0.7c-0.1,0.3-0.1,0.7-0.1,1.1
				c0,0.3,0,0.5,0.1,0.7s0.1,0.4,0.2,0.5s0.2,0.3,0.3,0.4c0.1,0.1,0.3,0.2,0.4,0.2C114,17.9,114.1,17.9,114.3,17.9z"/>
			<path class="st3" d="M120.2,18.7c-0.5,0-0.9-0.1-1.3-0.4s-0.7-0.6-0.9-1c-0.2-0.4-0.3-0.9-0.3-1.5c0-0.6,0.1-1.1,0.3-1.5
				c0.2-0.4,0.5-0.8,0.9-1s0.8-0.4,1.3-0.4s0.9,0.1,1.3,0.4c0.4,0.2,0.7,0.6,0.9,1c0.2,0.4,0.3,0.9,0.3,1.5c0,0.6-0.1,1-0.3,1.5
				c-0.2,0.4-0.5,0.8-0.9,1C121.1,18.5,120.7,18.7,120.2,18.7z M120.2,17.9c0.3,0,0.6-0.1,0.8-0.3s0.4-0.4,0.6-0.8
				c0.1-0.3,0.2-0.7,0.2-1.1s-0.1-0.8-0.2-1.1c-0.1-0.3-0.3-0.6-0.6-0.8c-0.2-0.2-0.5-0.3-0.8-0.3c-0.3,0-0.6,0.1-0.8,0.3
				c-0.2,0.2-0.4,0.4-0.6,0.8c-0.1,0.3-0.2,0.7-0.2,1.1s0.1,0.8,0.2,1.1c0.1,0.3,0.3,0.6,0.6,0.8S119.9,17.9,120.2,17.9z"/>
			<path class="st3" d="M124.1,18.6v-5.5h0.8v1c0.1-0.2,0.3-0.4,0.5-0.6s0.4-0.3,0.6-0.4c0.2-0.1,0.5-0.1,0.7-0.1
				c0.3,0,0.6,0.1,0.8,0.2c0.2,0.2,0.4,0.4,0.6,0.7c0.1,0.3,0.2,0.8,0.2,1.3v3.3h-0.8v-3.3c0-0.4,0-0.7-0.1-0.9s-0.2-0.4-0.4-0.5
				c-0.2-0.1-0.3-0.1-0.5-0.1c-0.2,0-0.4,0-0.6,0.1c-0.2,0.1-0.4,0.2-0.5,0.3c-0.2,0.1-0.3,0.3-0.4,0.5c-0.1,0.2-0.1,0.4-0.1,0.7
				v3.1H124.1z"/>
			<path class="st3" d="M132.2,20.6c-0.4,0-0.7,0-1-0.1c-0.3-0.1-0.6-0.1-0.8-0.3s-0.4-0.3-0.5-0.4s-0.2-0.4-0.2-0.6
				c0-0.2,0-0.4,0.1-0.6c0.1-0.2,0.2-0.3,0.4-0.4c0.2-0.1,0.3-0.2,0.5-0.3l0.4,0.2c-0.1,0.1-0.3,0.2-0.3,0.3
				c-0.1,0.1-0.2,0.2-0.2,0.3c0,0.1-0.1,0.3-0.1,0.4c0,0.1,0,0.3,0.1,0.4s0.2,0.2,0.3,0.3s0.3,0.1,0.5,0.2c0.2,0,0.5,0.1,0.7,0.1
				c0.4,0,0.7,0,0.9-0.1c0.2-0.1,0.4-0.2,0.5-0.3c0.1-0.1,0.2-0.3,0.2-0.4c0-0.2,0-0.3-0.1-0.4c-0.1-0.1-0.2-0.2-0.4-0.3
				c-0.2-0.1-0.5-0.1-0.9-0.1c-0.3,0-0.5,0-0.8,0s-0.4-0.1-0.6-0.1c-0.2-0.1-0.3-0.1-0.5-0.2c-0.1-0.1-0.2-0.2-0.3-0.3
				c-0.1-0.1-0.1-0.3-0.1-0.4c0-0.2,0.1-0.4,0.2-0.6c0.1-0.2,0.3-0.4,0.5-0.6l0.4,0.3c-0.1,0.1-0.1,0.2-0.2,0.2
				c0,0.1-0.1,0.1-0.1,0.2c0,0.1,0,0.1,0,0.2c0,0.1,0.1,0.2,0.2,0.3c0.1,0.1,0.3,0.1,0.5,0.2c0.2,0,0.6,0.1,1,0.1c0.4,0,0.8,0,1,0.1
				c0.3,0.1,0.5,0.2,0.6,0.3s0.2,0.3,0.3,0.4s0.1,0.4,0.1,0.6c0,0.2,0,0.4-0.1,0.6s-0.2,0.4-0.4,0.5c-0.2,0.2-0.4,0.3-0.7,0.4
				C133,20.6,132.6,20.6,132.2,20.6z M131.9,16.7c-0.4,0-0.7-0.1-1-0.3c-0.3-0.2-0.5-0.4-0.7-0.7c-0.2-0.3-0.2-0.6-0.2-0.9
				c0-0.3,0.1-0.7,0.2-0.9c0.2-0.3,0.4-0.5,0.7-0.7c0.3-0.2,0.6-0.3,1-0.3c0.4,0,0.7,0.1,1,0.3c0.3,0.2,0.5,0.4,0.7,0.7
				c0.2,0.3,0.2,0.6,0.2,0.9c0,0.3-0.1,0.7-0.2,0.9c-0.2,0.3-0.4,0.5-0.7,0.7C132.7,16.6,132.3,16.7,131.9,16.7z M131.9,16
				c0.2,0,0.4-0.1,0.6-0.2c0.2-0.1,0.3-0.2,0.4-0.4c0.1-0.2,0.2-0.4,0.2-0.6c0-0.2-0.1-0.4-0.2-0.6c-0.1-0.2-0.2-0.3-0.4-0.4
				s-0.4-0.2-0.6-0.2s-0.4,0.1-0.6,0.2c-0.2,0.1-0.3,0.2-0.4,0.4c-0.1,0.2-0.2,0.4-0.2,0.6c0,0.2,0.1,0.4,0.2,0.6
				c0.1,0.2,0.2,0.3,0.4,0.4C131.5,15.9,131.7,16,131.9,16z M133.5,14l-0.3-0.4c0.2-0.2,0.5-0.4,0.7-0.5s0.5-0.1,0.9-0.1l0.1,0.7
				c-0.3,0-0.5,0-0.7,0C133.9,13.7,133.7,13.8,133.5,14z"/>
			<path class="st3" d="M138.1,18.7c-0.2,0-0.4-0.1-0.5-0.2c-0.1-0.1-0.2-0.3-0.2-0.5s0.1-0.4,0.2-0.5c0.1-0.1,0.3-0.2,0.5-0.2
				c0.2,0,0.4,0.1,0.5,0.2c0.1,0.1,0.2,0.3,0.2,0.5c0,0.2-0.1,0.3-0.2,0.5C138.4,18.6,138.3,18.7,138.1,18.7z M137.8,16.2l-0.3-4.8
				c0-0.2,0-0.4,0.1-0.5c0-0.1,0.1-0.2,0.2-0.3c0.1-0.1,0.2-0.1,0.3-0.1s0.2,0,0.3,0.1c0.1,0.1,0.2,0.2,0.2,0.3s0.1,0.3,0.1,0.6
				l-0.3,4.7H137.8z"/>
		</g>
	</g>
</g>
</svg>
