<?xml version="1.0" encoding="utf-8"?>
<!-- Generator: Adobe Illustrator 26.0.1, SVG Export Plug-In . SVG Version: 6.00 Build 0)  -->
<svg version="1.1" id="Layer_1" xmlns="http://www.w3.org/2000/svg" xmlns:xlink="http://www.w3.org/1999/xlink" x="0px" y="0px"
	 viewBox="0 0 192 120" style="enable-background:new 0 0 192 120;" xml:space="preserve">
<style type="text/css">
	.st0{fill:#00AEEF;}
	.st1{fill:#EC008C;}
	.st2{font-family:'Pilowlava-Regular';}
	.st3{font-size:30px;}
</style>
<g>
	<g>
		<path class="st0" d="M10.4,18l-1.2-7.5H10l0.8,5.1l1.2-4.5h0.3l1.2,4.5l0.7-5.1h0.7L13.7,18h-0.3l-1.3-4.9L10.8,18H10.4z"/>
		<path class="st0" d="M18.3,18.1c-0.4,0-0.8-0.1-1.1-0.2s-0.6-0.3-0.8-0.5c-0.2-0.2-0.4-0.5-0.5-0.9c-0.1-0.4-0.2-0.8-0.2-1.2
			c0-0.5,0.1-0.9,0.2-1.2c0.1-0.4,0.3-0.7,0.5-0.9c0.2-0.2,0.5-0.4,0.8-0.6s0.6-0.2,1-0.2c0.3,0,0.6,0.1,0.9,0.2s0.5,0.3,0.7,0.5
			c0.2,0.2,0.4,0.5,0.5,0.8c0.1,0.3,0.2,0.7,0.2,1.2c0,0.1,0,0.1,0,0.2c0,0.1,0,0.1,0,0.2h-3.9c0,0.3,0.1,0.7,0.2,0.9
			c0.1,0.3,0.2,0.5,0.4,0.6s0.4,0.3,0.6,0.4c0.2,0.1,0.5,0.1,0.7,0.1c0.2,0,0.4,0,0.5-0.1s0.3-0.1,0.5-0.2c0.1-0.1,0.3-0.2,0.4-0.3
			l0.5,0.5c-0.2,0.2-0.3,0.3-0.5,0.5c-0.2,0.1-0.4,0.2-0.6,0.3S18.5,18.1,18.3,18.1z M16.5,14.7h3c0-0.3,0-0.5-0.1-0.7
			c-0.1-0.2-0.2-0.4-0.3-0.5c-0.1-0.1-0.3-0.3-0.4-0.3c-0.2-0.1-0.4-0.1-0.6-0.1c-0.2,0-0.4,0-0.5,0.1s-0.3,0.2-0.5,0.3
			c-0.1,0.1-0.3,0.3-0.4,0.5C16.6,14.2,16.5,14.4,16.5,14.7z"/>
		<path class="st0" d="M21.9,18v-0.7h1.6v-6.6H22V10h2.4v7.3h1.6V18H21.9z"/>
		<path class="st0" d="M29.3,17.9c-0.3-0.1-0.6-0.3-0.9-0.6c-0.2-0.3-0.4-0.6-0.6-0.9c-0.1-0.3-0.2-0.7-0.2-1.1
			c0-0.4,0.1-0.8,0.2-1.1c0.1-0.3,0.3-0.6,0.6-0.9c0.2-0.3,0.5-0.5,0.9-0.6c0.3-0.1,0.7-0.2,1.1-0.2c0.4,0,0.8,0.1,1.2,0.3
			s0.6,0.4,0.9,0.8l-0.5,0.5L31.9,14L31.8,14c0-0.1,0-0.1,0-0.2c0-0.1-0.1-0.1-0.2-0.2c-0.2-0.2-0.4-0.3-0.6-0.3
			c-0.2-0.1-0.4-0.1-0.7-0.1c-0.2,0-0.5,0-0.7,0.1c-0.2,0.1-0.4,0.2-0.6,0.4c-0.2,0.2-0.3,0.4-0.4,0.7c-0.1,0.3-0.1,0.5-0.1,0.8
			c0,0.3,0,0.6,0.1,0.9c0.1,0.3,0.2,0.5,0.4,0.7s0.4,0.3,0.6,0.4c0.2,0.1,0.5,0.2,0.8,0.2c0.2,0,0.4,0,0.5-0.1
			c0.2-0.1,0.3-0.1,0.5-0.2c0.2-0.1,0.3-0.2,0.4-0.4l0.5,0.6c-0.3,0.3-0.6,0.5-0.9,0.6c-0.3,0.1-0.7,0.2-1.1,0.2
			C30,18.1,29.7,18,29.3,17.9z"/>
		<path class="st0" d="M36,18.1c-0.5,0-0.9-0.1-1.3-0.4s-0.7-0.6-0.9-1c-0.2-0.4-0.3-0.9-0.3-1.5c0-0.6,0.1-1.1,0.3-1.5
			c0.2-0.4,0.5-0.8,0.9-1s0.8-0.4,1.3-0.4s0.9,0.1,1.3,0.4s0.7,0.6,0.9,1c0.2,0.4,0.3,0.9,0.3,1.5c0,0.6-0.1,1-0.3,1.5
			c-0.2,0.4-0.5,0.8-0.9,1S36.5,18.1,36,18.1z M36,17.4c0.3,0,0.6-0.1,0.8-0.3c0.2-0.2,0.4-0.4,0.6-0.8c0.1-0.3,0.2-0.7,0.2-1.1
			s-0.1-0.8-0.2-1.1c-0.1-0.3-0.3-0.6-0.6-0.8c-0.2-0.2-0.5-0.3-0.8-0.3c-0.3,0-0.6,0.1-0.8,0.3c-0.2,0.2-0.4,0.4-0.6,0.8
			c-0.1,0.3-0.2,0.7-0.2,1.1s0.1,0.8,0.2,1.1c0.1,0.3,0.3,0.6,0.6,0.8S35.7,17.4,36,17.4z"/>
		<path class="st0" d="M39.5,18v-5.5h0.8v0.6c0.1-0.1,0.2-0.3,0.3-0.4c0.1-0.1,0.2-0.2,0.4-0.2c0.1-0.1,0.3-0.1,0.4-0.1
			c0.2,0,0.3,0,0.4,0.1c0.1,0.1,0.2,0.2,0.3,0.3c0.1,0.1,0.2,0.3,0.2,0.4c0.1-0.2,0.2-0.3,0.3-0.4c0.1-0.1,0.3-0.2,0.4-0.3
			s0.3-0.1,0.5-0.1c0.2,0,0.3,0,0.5,0.1c0.1,0.1,0.2,0.2,0.3,0.3c0.1,0.1,0.2,0.3,0.2,0.4s0.1,0.4,0,0.6V18h-0.8v-3.9
			c0-0.3,0-0.6-0.1-0.7c0-0.2-0.1-0.2-0.2-0.3S43.4,13,43.3,13c-0.2,0-0.3,0.1-0.4,0.2s-0.2,0.3-0.3,0.5c-0.1,0.2-0.1,0.4-0.1,0.6
			V18h-0.8v-3.8c0-0.5,0-0.8-0.1-0.9c-0.1-0.2-0.2-0.2-0.5-0.2c-0.1,0-0.2,0-0.3,0.1c-0.1,0.1-0.2,0.1-0.3,0.3
			c-0.1,0.1-0.1,0.2-0.2,0.4c0,0.2-0.1,0.3-0.1,0.6V18H39.5z"/>
		<path class="st0" d="M48.3,18.1c-0.4,0-0.8-0.1-1.1-0.2s-0.6-0.3-0.8-0.5c-0.2-0.2-0.4-0.5-0.5-0.9c-0.1-0.4-0.2-0.8-0.2-1.2
			c0-0.5,0.1-0.9,0.2-1.2c0.1-0.4,0.3-0.7,0.5-0.9c0.2-0.2,0.5-0.4,0.8-0.6s0.6-0.2,1-0.2c0.3,0,0.6,0.1,0.9,0.2s0.5,0.3,0.7,0.5
			c0.2,0.2,0.4,0.5,0.5,0.8c0.1,0.3,0.2,0.7,0.2,1.2c0,0.1,0,0.1,0,0.2c0,0.1,0,0.1,0,0.2h-3.9c0,0.3,0.1,0.7,0.2,0.9
			c0.1,0.3,0.2,0.5,0.4,0.6s0.4,0.3,0.6,0.4c0.2,0.1,0.5,0.1,0.7,0.1c0.2,0,0.4,0,0.5-0.1s0.3-0.1,0.5-0.2c0.1-0.1,0.3-0.2,0.4-0.3
			l0.5,0.5c-0.2,0.2-0.3,0.3-0.5,0.5c-0.2,0.1-0.4,0.2-0.6,0.3S48.5,18.1,48.3,18.1z M46.5,14.7h3c0-0.3,0-0.5-0.1-0.7
			c-0.1-0.2-0.2-0.4-0.3-0.5c-0.1-0.1-0.3-0.3-0.4-0.3c-0.2-0.1-0.4-0.1-0.6-0.1c-0.2,0-0.4,0-0.5,0.1s-0.3,0.2-0.5,0.3
			c-0.1,0.1-0.3,0.3-0.4,0.5C46.6,14.2,46.5,14.4,46.5,14.7z"/>
		<path class="st0" d="M57.8,12.5h3.9v0.7h-3.9V12.5z M59.7,17.9c-0.2-0.1-0.4-0.3-0.5-0.6s-0.2-0.6-0.2-1c0-0.4,0-0.8,0-1.4
			l0.1-3.9L60,11l0.1,0l0,0.1c0,0.1-0.1,0.1-0.1,0.2c0,0.1-0.1,0.2-0.1,0.3l-0.1,1.4l0,0.2l-0.1,2c0,0.6,0,1.1,0,1.4
			c0.1,0.3,0.2,0.6,0.3,0.7c0.1,0.1,0.3,0.2,0.6,0.2c0.3,0,0.5-0.1,0.7-0.2s0.4-0.2,0.6-0.4l0.3,0.7c-0.3,0.2-0.6,0.3-0.8,0.4
			c-0.3,0.1-0.6,0.1-0.9,0.1C60.2,18.1,59.9,18,59.7,17.9z"/>
		<path class="st0" d="M66,18.1c-0.5,0-0.9-0.1-1.3-0.4s-0.7-0.6-0.9-1c-0.2-0.4-0.3-0.9-0.3-1.5c0-0.6,0.1-1.1,0.3-1.5
			c0.2-0.4,0.5-0.8,0.9-1s0.8-0.4,1.3-0.4s0.9,0.1,1.3,0.4s0.7,0.6,0.9,1c0.2,0.4,0.3,0.9,0.3,1.5c0,0.6-0.1,1-0.3,1.5
			c-0.2,0.4-0.5,0.8-0.9,1S66.5,18.1,66,18.1z M66,17.4c0.3,0,0.6-0.1,0.8-0.3c0.2-0.2,0.4-0.4,0.6-0.8c0.1-0.3,0.2-0.7,0.2-1.1
			s-0.1-0.8-0.2-1.1c-0.1-0.3-0.3-0.6-0.6-0.8c-0.2-0.2-0.5-0.3-0.8-0.3c-0.3,0-0.6,0.1-0.8,0.3c-0.2,0.2-0.4,0.4-0.6,0.8
			c-0.1,0.3-0.2,0.7-0.2,1.1s0.1,0.8,0.2,1.1c0.1,0.3,0.3,0.6,0.6,0.8S65.7,17.4,66,17.4z"/>
		<path class="st0" d="M77.3,17.9c-0.3-0.1-0.6-0.3-0.9-0.6c-0.2-0.3-0.4-0.6-0.6-0.9c-0.1-0.3-0.2-0.7-0.2-1.1
			c0-0.4,0.1-0.8,0.2-1.1c0.1-0.3,0.3-0.6,0.6-0.9c0.2-0.3,0.5-0.5,0.9-0.6c0.3-0.1,0.7-0.2,1.1-0.2c0.4,0,0.8,0.1,1.2,0.3
			s0.6,0.4,0.9,0.8l-0.5,0.5L79.9,14L79.8,14c0-0.1,0-0.1,0-0.2c0-0.1-0.1-0.1-0.2-0.2c-0.2-0.2-0.4-0.3-0.6-0.3
			c-0.2-0.1-0.4-0.1-0.7-0.1c-0.2,0-0.5,0-0.7,0.1c-0.2,0.1-0.4,0.2-0.6,0.4c-0.2,0.2-0.3,0.4-0.4,0.7c-0.1,0.3-0.1,0.5-0.1,0.8
			c0,0.3,0,0.6,0.1,0.9c0.1,0.3,0.2,0.5,0.4,0.7s0.4,0.3,0.6,0.4c0.2,0.1,0.5,0.2,0.8,0.2c0.2,0,0.4,0,0.5-0.1
			c0.2-0.1,0.3-0.1,0.5-0.2c0.2-0.1,0.3-0.2,0.4-0.4l0.5,0.6c-0.3,0.3-0.6,0.5-0.9,0.6c-0.3,0.1-0.7,0.2-1.1,0.2
			C78,18.1,77.7,18,77.3,17.9z"/>
		<path class="st0" d="M81.9,10h0.8h0.1v0.1c0,0-0.1,0.1-0.1,0.2c0,0.1,0,0.2,0,0.3v3c0.1-0.2,0.3-0.4,0.5-0.6
			c0.2-0.2,0.4-0.3,0.6-0.4c0.2-0.1,0.4-0.1,0.7-0.1c0.3,0,0.6,0.1,0.9,0.2c0.3,0.2,0.4,0.4,0.6,0.7c0.1,0.3,0.2,0.8,0.2,1.3V18
			h-0.8v-3.3c0-0.4,0-0.7-0.1-0.9s-0.2-0.4-0.4-0.5c-0.2-0.1-0.3-0.1-0.5-0.1c-0.1,0-0.3,0-0.4,0.1c-0.2,0-0.3,0.1-0.4,0.2
			c-0.1,0.1-0.3,0.2-0.4,0.4c-0.1,0.1-0.2,0.3-0.3,0.5c-0.1,0.2-0.1,0.4-0.1,0.6V18h-0.8V10z"/>
		<path class="st0" d="M89.5,18.1c-0.6,0-1.1-0.1-1.4-0.4c-0.3-0.3-0.5-0.6-0.5-1.1c0-0.3,0.1-0.6,0.2-0.8c0.1-0.2,0.3-0.4,0.6-0.6
			s0.5-0.3,0.9-0.4c0.3-0.1,0.7-0.1,1.1-0.1c0.1,0,0.3,0,0.4,0c0.1,0,0.3,0,0.4,0c0.2,0,0.3,0,0.5,0.1l0,0.7c-0.1,0-0.3,0-0.4-0.1
			c-0.1,0-0.3,0-0.4,0c-0.1,0-0.3,0-0.4,0c-0.3,0-0.6,0-0.8,0.1s-0.4,0.1-0.6,0.2c-0.2,0.1-0.3,0.2-0.4,0.4
			c-0.1,0.2-0.1,0.3-0.1,0.5c0,0.2,0,0.3,0.1,0.4s0.1,0.2,0.2,0.3c0.1,0.1,0.2,0.1,0.4,0.1c0.1,0,0.3,0,0.5,0c0.3,0,0.6,0,0.8-0.1
			c0.2-0.1,0.5-0.2,0.6-0.4s0.3-0.4,0.4-0.7s0.1-0.6,0.1-1c0-0.5-0.1-1-0.2-1.3c-0.1-0.3-0.3-0.5-0.6-0.6s-0.6-0.2-1-0.2
			c-0.3,0-0.5,0.1-0.8,0.1c-0.3,0.1-0.5,0.3-0.7,0.5L88,13.2c0.3-0.3,0.6-0.4,0.9-0.6s0.7-0.2,1.1-0.2c0.4,0,0.7,0,1,0.1
			c0.3,0.1,0.5,0.2,0.8,0.4c0.2,0.2,0.4,0.5,0.5,0.8s0.2,0.8,0.2,1.3V18h-0.9v-0.9c-0.1,0.2-0.2,0.4-0.4,0.5
			c-0.1,0.1-0.3,0.2-0.5,0.3S90.2,18,90,18.1C89.9,18.1,89.7,18.1,89.5,18.1z"/>
		<path class="st0" d="M96,18.1c-0.5,0-0.9-0.1-1.3-0.4s-0.7-0.6-0.9-1c-0.2-0.4-0.3-0.9-0.3-1.5c0-0.6,0.1-1.1,0.3-1.5
			c0.2-0.4,0.5-0.8,0.9-1s0.8-0.4,1.3-0.4s0.9,0.1,1.3,0.4c0.4,0.2,0.7,0.6,0.9,1c0.2,0.4,0.3,0.9,0.3,1.5c0,0.6-0.1,1-0.3,1.5
			c-0.2,0.4-0.5,0.8-0.9,1C96.9,18,96.5,18.1,96,18.1z M96,17.4c0.3,0,0.6-0.1,0.8-0.3s0.4-0.4,0.6-0.8c0.1-0.3,0.2-0.7,0.2-1.1
			s-0.1-0.8-0.2-1.1c-0.1-0.3-0.3-0.6-0.6-0.8c-0.2-0.2-0.5-0.3-0.8-0.3c-0.3,0-0.6,0.1-0.8,0.3c-0.2,0.2-0.4,0.4-0.6,0.8
			c-0.1,0.3-0.2,0.7-0.2,1.1s0.1,0.8,0.2,1.1c0.1,0.3,0.3,0.6,0.6,0.8S95.7,17.4,96,17.4z"/>
		<path class="st0" d="M101.1,18c-0.3-0.1-0.5-0.2-0.8-0.3c-0.2-0.1-0.5-0.3-0.7-0.5l0.5-0.8l0.1-0.1l0.1,0c0,0.1,0,0.1,0.1,0.2
			c0,0.1,0.1,0.1,0.2,0.2c0.2,0.2,0.4,0.3,0.6,0.4s0.5,0.2,0.9,0.2c0.3,0,0.5,0,0.8-0.1c0.2-0.1,0.4-0.2,0.5-0.3s0.2-0.3,0.2-0.5
			c0-0.1,0-0.2-0.1-0.3c0-0.1-0.1-0.2-0.2-0.3s-0.2-0.2-0.4-0.2c-0.2-0.1-0.4-0.2-0.6-0.2c-0.4-0.1-0.8-0.3-1.1-0.4
			c-0.3-0.2-0.6-0.3-0.7-0.6c-0.2-0.2-0.3-0.5-0.3-0.7c0-0.3,0.1-0.5,0.2-0.7s0.4-0.4,0.7-0.5c0.3-0.1,0.7-0.2,1.1-0.2
			c0.3,0,0.5,0,0.7,0.1c0.2,0,0.4,0.1,0.6,0.2c0.2,0.1,0.3,0.2,0.5,0.3c0.1,0.1,0.3,0.2,0.4,0.4l-0.5,0.6l-0.1,0.1l-0.1-0.1
			c0-0.1,0-0.1-0.1-0.2c0-0.1-0.1-0.1-0.2-0.2c-0.2-0.1-0.4-0.3-0.6-0.3c-0.2-0.1-0.5-0.1-0.7-0.1c-0.3,0-0.6,0.1-0.8,0.2
			c-0.2,0.1-0.3,0.3-0.3,0.5c0,0.1,0,0.2,0.1,0.4s0.2,0.2,0.5,0.3c0.2,0.1,0.5,0.2,1,0.4c0.5,0.1,0.8,0.3,1.1,0.4
			c0.3,0.1,0.5,0.3,0.6,0.5c0.1,0.2,0.2,0.4,0.2,0.7c0,0.3-0.1,0.6-0.2,0.8c-0.2,0.3-0.4,0.5-0.8,0.6c-0.3,0.2-0.8,0.2-1.3,0.2
			C101.7,18.1,101.4,18.1,101.1,18z"/>
		<path class="st0" d="M111.7,20v-7.5h0.9v1.1c0.1-0.3,0.2-0.5,0.4-0.7s0.4-0.3,0.6-0.4s0.5-0.1,0.7-0.1c0.3,0,0.6,0.1,0.9,0.2
			c0.3,0.1,0.5,0.3,0.7,0.5s0.4,0.5,0.5,0.9s0.2,0.8,0.2,1.2s-0.1,0.9-0.2,1.3c-0.1,0.4-0.3,0.7-0.5,0.9s-0.5,0.4-0.7,0.5
			s-0.6,0.2-0.8,0.2c-0.2,0-0.4,0-0.6-0.1s-0.4-0.2-0.6-0.3c-0.2-0.1-0.3-0.3-0.4-0.5V20H111.7z M114.1,17.3c0.2,0,0.4,0,0.6-0.1
			c0.2-0.1,0.4-0.2,0.5-0.3c0.2-0.2,0.3-0.4,0.4-0.6c0.1-0.3,0.1-0.6,0.1-1c0-0.4-0.1-0.8-0.2-1.1c-0.1-0.3-0.3-0.5-0.5-0.7
			s-0.5-0.3-0.8-0.3c-0.2,0-0.4,0-0.6,0.1c-0.2,0.1-0.4,0.2-0.5,0.4c-0.2,0.2-0.3,0.4-0.4,0.7c-0.1,0.3-0.1,0.7-0.1,1.1
			c0,0.3,0,0.5,0.1,0.7s0.1,0.4,0.2,0.5s0.2,0.3,0.3,0.4c0.1,0.1,0.3,0.2,0.4,0.2C113.8,17.3,113.9,17.3,114.1,17.3z"/>
		<path class="st0" d="M120,18.1c-0.5,0-0.9-0.1-1.3-0.4s-0.7-0.6-0.9-1c-0.2-0.4-0.3-0.9-0.3-1.5c0-0.6,0.1-1.1,0.3-1.5
			c0.2-0.4,0.5-0.8,0.9-1s0.8-0.4,1.3-0.4s0.9,0.1,1.3,0.4c0.4,0.2,0.7,0.6,0.9,1c0.2,0.4,0.3,0.9,0.3,1.5c0,0.6-0.1,1-0.3,1.5
			c-0.2,0.4-0.5,0.8-0.9,1C120.9,18,120.5,18.1,120,18.1z M120,17.4c0.3,0,0.6-0.1,0.8-0.3s0.4-0.4,0.6-0.8c0.1-0.3,0.2-0.7,0.2-1.1
			s-0.1-0.8-0.2-1.1c-0.1-0.3-0.3-0.6-0.6-0.8c-0.2-0.2-0.5-0.3-0.8-0.3c-0.3,0-0.6,0.1-0.8,0.3c-0.2,0.2-0.4,0.4-0.6,0.8
			c-0.1,0.3-0.2,0.7-0.2,1.1s0.1,0.8,0.2,1.1c0.1,0.3,0.3,0.6,0.6,0.8S119.7,17.4,120,17.4z"/>
		<path class="st0" d="M123.9,18v-5.5h0.8v1c0.1-0.2,0.3-0.4,0.5-0.6s0.4-0.3,0.6-0.4c0.2-0.1,0.5-0.1,0.7-0.1
			c0.3,0,0.6,0.1,0.8,0.2c0.2,0.2,0.4,0.4,0.6,0.7c0.1,0.3,0.2,0.8,0.2,1.3V18h-0.8v-3.3c0-0.4,0-0.7-0.1-0.9s-0.2-0.4-0.4-0.5
			c-0.2-0.1-0.3-0.1-0.5-0.1c-0.2,0-0.4,0-0.6,0.1c-0.2,0.1-0.4,0.2-0.5,0.3c-0.2,0.1-0.3,0.3-0.4,0.5c-0.1,0.2-0.1,0.4-0.1,0.7V18
			H123.9z"/>
		<path class="st0" d="M132,20.1c-0.4,0-0.7,0-1-0.1c-0.3-0.1-0.6-0.1-0.8-0.3s-0.4-0.3-0.5-0.4s-0.2-0.4-0.2-0.6
			c0-0.2,0-0.4,0.1-0.6c0.1-0.2,0.2-0.3,0.4-0.4c0.2-0.1,0.3-0.2,0.5-0.3l0.4,0.2c-0.1,0.1-0.3,0.2-0.3,0.3
			c-0.1,0.1-0.2,0.2-0.2,0.3c0,0.1-0.1,0.3-0.1,0.4c0,0.1,0,0.3,0.1,0.4s0.2,0.2,0.3,0.3s0.3,0.1,0.5,0.2c0.2,0,0.5,0.1,0.7,0.1
			c0.4,0,0.7,0,0.9-0.1c0.2-0.1,0.4-0.2,0.5-0.3c0.1-0.1,0.2-0.3,0.2-0.4c0-0.2,0-0.3-0.1-0.4c-0.1-0.1-0.2-0.2-0.4-0.3
			c-0.2-0.1-0.5-0.1-0.9-0.1c-0.3,0-0.5,0-0.8,0s-0.4-0.1-0.6-0.1c-0.2-0.1-0.3-0.1-0.5-0.2c-0.1-0.1-0.2-0.2-0.3-0.3
			c-0.1-0.1-0.1-0.3-0.1-0.4c0-0.2,0.1-0.4,0.2-0.6c0.1-0.2,0.3-0.4,0.5-0.6l0.4,0.3c-0.1,0.1-0.1,0.2-0.2,0.2
			c0,0.1-0.1,0.1-0.1,0.2c0,0.1,0,0.1,0,0.2c0,0.1,0.1,0.2,0.2,0.3c0.1,0.1,0.3,0.1,0.5,0.2c0.2,0,0.6,0.1,1,0.1c0.4,0,0.8,0,1,0.1
			c0.3,0.1,0.5,0.2,0.6,0.3s0.2,0.3,0.3,0.4s0.1,0.4,0.1,0.6c0,0.2,0,0.4-0.1,0.6s-0.2,0.4-0.4,0.5c-0.2,0.2-0.4,0.3-0.7,0.4
			C132.8,20,132.4,20.1,132,20.1z M131.7,16.2c-0.4,0-0.7-0.1-1-0.3c-0.3-0.2-0.5-0.4-0.7-0.7c-0.2-0.3-0.2-0.6-0.2-0.9
			c0-0.3,0.1-0.7,0.2-0.9c0.2-0.3,0.4-0.5,0.7-0.7c0.3-0.2,0.6-0.3,1-0.3c0.4,0,0.7,0.1,1,0.3c0.3,0.2,0.5,0.4,0.7,0.7
			c0.2,0.3,0.2,0.6,0.2,0.9c0,0.3-0.1,0.7-0.2,0.9c-0.2,0.3-0.4,0.5-0.7,0.7C132.5,16.1,132.1,16.2,131.7,16.2z M131.7,15.4
			c0.2,0,0.4-0.1,0.6-0.2c0.2-0.1,0.3-0.2,0.4-0.4c0.1-0.2,0.2-0.4,0.2-0.6c0-0.2-0.1-0.4-0.2-0.6c-0.1-0.2-0.2-0.3-0.4-0.4
			s-0.4-0.2-0.6-0.2s-0.4,0.1-0.6,0.2c-0.2,0.1-0.3,0.2-0.4,0.4c-0.1,0.2-0.2,0.4-0.2,0.6c0,0.2,0.1,0.4,0.2,0.6
			c0.1,0.2,0.2,0.3,0.4,0.4C131.3,15.4,131.5,15.4,131.7,15.4z M133.3,13.4L133,13c0.2-0.2,0.5-0.4,0.7-0.5s0.5-0.1,0.9-0.1l0.1,0.7
			c-0.3,0-0.5,0-0.7,0C133.7,13.2,133.5,13.3,133.3,13.4z"/>
		<path class="st0" d="M137.9,18.1c-0.2,0-0.4-0.1-0.5-0.2c-0.1-0.1-0.2-0.3-0.2-0.5s0.1-0.4,0.2-0.5c0.1-0.1,0.3-0.2,0.5-0.2
			c0.2,0,0.4,0.1,0.5,0.2c0.1,0.1,0.2,0.3,0.2,0.5c0,0.2-0.1,0.3-0.2,0.5C138.2,18,138.1,18.1,137.9,18.1z M137.6,15.6l-0.3-4.8
			c0-0.2,0-0.4,0.1-0.5c0-0.1,0.1-0.2,0.2-0.3c0.1-0.1,0.2-0.1,0.3-0.1s0.2,0,0.3,0.1c0.1,0.1,0.2,0.2,0.2,0.3s0.1,0.3,0.1,0.6
			l-0.3,4.7H137.6z"/>
	</g>
</g>
<g>
	<g>
		<g>
			<path d="M23.1,46.7v-6.2h0.7v0.9c0.1-0.2,0.2-0.4,0.3-0.6c0.1-0.1,0.3-0.3,0.5-0.3c0.2-0.1,0.4-0.1,0.6-0.1c0.3,0,0.5,0,0.7,0.1
				c0.2,0.1,0.4,0.2,0.6,0.4c0.2,0.2,0.3,0.4,0.4,0.7c0.1,0.3,0.2,0.6,0.2,1c0,0.4-0.1,0.7-0.2,1.1c-0.1,0.3-0.3,0.6-0.4,0.8
				c-0.2,0.2-0.4,0.4-0.6,0.5s-0.5,0.2-0.7,0.2c-0.2,0-0.4,0-0.5-0.1c-0.2-0.1-0.3-0.1-0.5-0.2c-0.1-0.1-0.3-0.2-0.4-0.4v2.3H23.1z
				 M25.1,44.4c0.2,0,0.3,0,0.5-0.1s0.3-0.1,0.4-0.3c0.1-0.1,0.2-0.3,0.3-0.5c0.1-0.2,0.1-0.5,0.1-0.8c0-0.4,0-0.7-0.1-0.9
				c-0.1-0.3-0.2-0.4-0.4-0.6C25.7,41,25.4,41,25.2,41c-0.2,0-0.4,0-0.5,0.1c-0.2,0.1-0.3,0.2-0.4,0.3S24,41.7,23.9,42
				s-0.1,0.5-0.1,0.9c0,0.2,0,0.4,0.1,0.6s0.1,0.3,0.2,0.4s0.2,0.2,0.3,0.3s0.2,0.1,0.3,0.2C24.8,44.4,24.9,44.4,25.1,44.4z"/>
			<path d="M28.7,40.4h0.8l0,1.3l-0.1-0.1c0-0.2,0.1-0.4,0.2-0.6c0.1-0.2,0.2-0.3,0.4-0.4c0.1-0.1,0.3-0.2,0.5-0.2
				c0.2-0.1,0.3-0.1,0.5-0.1c0.2,0,0.5,0,0.7,0.1c0.2,0.1,0.4,0.2,0.5,0.4l-0.3,0.6l0,0.1l-0.1,0c0-0.1,0-0.1-0.1-0.1
				c0,0-0.1-0.1-0.2-0.2c-0.1-0.1-0.2-0.1-0.3-0.1c-0.1,0-0.2,0-0.3,0c-0.2,0-0.3,0-0.5,0.1s-0.3,0.2-0.5,0.3
				c-0.1,0.1-0.2,0.3-0.3,0.5s-0.1,0.5-0.1,0.7V45h-0.7V40.4z"/>
			<path d="M35.2,45.1c-0.3,0-0.6-0.1-0.9-0.2c-0.3-0.1-0.5-0.3-0.7-0.5s-0.3-0.4-0.5-0.7c-0.1-0.3-0.2-0.6-0.2-1
				c0-0.4,0.1-0.7,0.2-1c0.1-0.3,0.3-0.5,0.5-0.8s0.4-0.4,0.7-0.5s0.5-0.2,0.8-0.2c0.3,0,0.5,0,0.7,0.1s0.4,0.2,0.6,0.4
				c0.2,0.2,0.3,0.4,0.4,0.7c0.1,0.3,0.1,0.6,0.1,1c0,0.1,0,0.1,0,0.2s0,0.1,0,0.2h-3.2c0,0.3,0.1,0.5,0.1,0.8
				c0.1,0.2,0.2,0.4,0.3,0.5c0.1,0.1,0.3,0.2,0.5,0.3c0.2,0.1,0.4,0.1,0.6,0.1c0.2,0,0.3,0,0.4-0.1c0.1,0,0.3-0.1,0.4-0.2
				s0.2-0.2,0.3-0.3l0.4,0.4c-0.1,0.2-0.3,0.3-0.4,0.4C36.2,44.9,36,45,35.9,45C35.7,45.1,35.4,45.1,35.2,45.1z M33.7,42.3h2.5
				c0-0.2,0-0.4-0.1-0.6c-0.1-0.2-0.1-0.3-0.2-0.4c-0.1-0.1-0.2-0.2-0.4-0.3c-0.1-0.1-0.3-0.1-0.5-0.1c-0.2,0-0.3,0-0.5,0.1
				c-0.1,0.1-0.3,0.1-0.4,0.3c-0.1,0.1-0.2,0.3-0.3,0.4C33.8,41.8,33.7,42,33.7,42.3z"/>
			<path d="M39.3,45c-0.2-0.1-0.4-0.1-0.7-0.2c-0.2-0.1-0.4-0.2-0.6-0.4l0.4-0.7l0.1-0.1l0.1,0c0,0.1,0,0.1,0,0.2s0.1,0.1,0.1,0.2
				c0.1,0.1,0.3,0.3,0.5,0.3c0.2,0.1,0.4,0.1,0.8,0.1c0.2,0,0.5,0,0.6-0.1c0.2-0.1,0.3-0.1,0.4-0.3c0.1-0.1,0.1-0.2,0.1-0.4
				c0-0.1,0-0.2-0.1-0.3s-0.1-0.1-0.2-0.2s-0.2-0.1-0.4-0.2C40.4,43,40.3,43,40,42.9c-0.3-0.1-0.6-0.2-0.9-0.3
				c-0.3-0.1-0.5-0.3-0.6-0.5c-0.1-0.2-0.2-0.4-0.2-0.6c0-0.2,0.1-0.4,0.2-0.6c0.1-0.2,0.3-0.3,0.6-0.4s0.6-0.1,0.9-0.1
				c0.2,0,0.4,0,0.6,0s0.3,0.1,0.5,0.1c0.1,0.1,0.3,0.1,0.4,0.2c0.1,0.1,0.2,0.2,0.4,0.3l-0.4,0.5l-0.1,0.1l0,0c0-0.1,0-0.1,0-0.2
				c0,0-0.1-0.1-0.1-0.2c-0.2-0.1-0.3-0.2-0.5-0.3c-0.2-0.1-0.4-0.1-0.6-0.1c-0.3,0-0.5,0-0.7,0.1S39,41.2,39,41.4
				c0,0.1,0,0.2,0.1,0.3c0.1,0.1,0.2,0.2,0.4,0.3c0.2,0.1,0.5,0.2,0.8,0.3c0.4,0.1,0.7,0.2,0.9,0.4c0.2,0.1,0.4,0.3,0.5,0.4
				c0.1,0.2,0.2,0.3,0.2,0.6c0,0.3-0.1,0.5-0.2,0.7s-0.3,0.4-0.6,0.5c-0.3,0.1-0.6,0.2-1.1,0.2C39.8,45.1,39.5,45.1,39.3,45z"/>
			<path d="M44.3,45c-0.2-0.1-0.4-0.1-0.7-0.2c-0.2-0.1-0.4-0.2-0.6-0.4l0.4-0.7l0.1-0.1l0.1,0c0,0.1,0,0.1,0,0.2s0.1,0.1,0.1,0.2
				c0.1,0.1,0.3,0.3,0.5,0.3c0.2,0.1,0.4,0.1,0.8,0.1c0.2,0,0.5,0,0.6-0.1c0.2-0.1,0.3-0.1,0.4-0.3c0.1-0.1,0.1-0.2,0.1-0.4
				c0-0.1,0-0.2-0.1-0.3s-0.1-0.1-0.2-0.2s-0.2-0.1-0.4-0.2C45.4,43,45.3,43,45,42.9c-0.3-0.1-0.6-0.2-0.9-0.3
				c-0.3-0.1-0.5-0.3-0.6-0.5c-0.1-0.2-0.2-0.4-0.2-0.6c0-0.2,0.1-0.4,0.2-0.6c0.1-0.2,0.3-0.3,0.6-0.4s0.6-0.1,0.9-0.1
				c0.2,0,0.4,0,0.6,0s0.3,0.1,0.5,0.1c0.1,0.1,0.3,0.1,0.4,0.2c0.1,0.1,0.2,0.2,0.4,0.3l-0.4,0.5l-0.1,0.1l0,0c0-0.1,0-0.1,0-0.2
				c0,0-0.1-0.1-0.1-0.2c-0.2-0.1-0.3-0.2-0.5-0.3c-0.2-0.1-0.4-0.1-0.6-0.1c-0.3,0-0.5,0-0.7,0.1S44,41.2,44,41.4
				c0,0.1,0,0.2,0.1,0.3c0.1,0.1,0.2,0.2,0.4,0.3c0.2,0.1,0.5,0.2,0.8,0.3c0.4,0.1,0.7,0.2,0.9,0.4c0.2,0.1,0.4,0.3,0.5,0.4
				c0.1,0.2,0.2,0.3,0.2,0.6c0,0.3-0.1,0.5-0.2,0.7s-0.3,0.4-0.6,0.5c-0.3,0.1-0.6,0.2-1.1,0.2C44.8,45.1,44.5,45.1,44.3,45z"/>
		</g>
	</g>
	<text transform="matrix(0.9905 0 0 1 36 76.5)" class="st1 st2 st3">space</text>
	<g>
		<g>
			<path d="M131.2,85.4h3.3V86h-3.3V85.4z M132.8,89.9c-0.2-0.1-0.3-0.3-0.4-0.5c-0.1-0.2-0.2-0.5-0.2-0.8c0-0.3,0-0.7,0-1.1
				l0.1-3.3l0.8-0.1l0.1,0l0,0.1c0,0-0.1,0.1-0.1,0.1s0,0.1-0.1,0.2l-0.1,1.1l0,0.2l-0.1,1.7c0,0.5,0,0.9,0,1.2s0.1,0.5,0.2,0.6
				c0.1,0.1,0.3,0.2,0.5,0.2c0.2,0,0.4,0,0.6-0.1c0.2-0.1,0.3-0.2,0.5-0.3l0.2,0.6c-0.2,0.2-0.5,0.3-0.7,0.4s-0.5,0.1-0.8,0.1
				C133.2,90.1,133,90,132.8,89.9z"/>
			<path d="M138,90.1c-0.4,0-0.8-0.1-1.1-0.3c-0.3-0.2-0.6-0.5-0.7-0.8s-0.3-0.8-0.3-1.2c0-0.5,0.1-0.9,0.3-1.2
				c0.2-0.4,0.4-0.6,0.7-0.8c0.3-0.2,0.7-0.3,1.1-0.3c0.4,0,0.8,0.1,1.1,0.3c0.3,0.2,0.6,0.5,0.7,0.8c0.2,0.4,0.3,0.8,0.3,1.2
				c0,0.5-0.1,0.9-0.3,1.2s-0.4,0.6-0.7,0.8S138.4,90.1,138,90.1z M138,89.5c0.3,0,0.5-0.1,0.7-0.2c0.2-0.2,0.4-0.4,0.5-0.6
				c0.1-0.3,0.2-0.6,0.2-0.9c0-0.3-0.1-0.7-0.2-0.9c-0.1-0.3-0.3-0.5-0.5-0.6c-0.2-0.2-0.4-0.2-0.7-0.2c-0.3,0-0.5,0.1-0.7,0.2
				c-0.2,0.1-0.4,0.4-0.5,0.6c-0.1,0.3-0.2,0.6-0.2,0.9c0,0.3,0.1,0.7,0.2,0.9c0.1,0.3,0.3,0.5,0.5,0.6
				C137.5,89.4,137.7,89.5,138,89.5z"/>
			<path d="M147.3,90c-0.2-0.1-0.4-0.1-0.7-0.2c-0.2-0.1-0.4-0.2-0.6-0.4l0.4-0.7l0.1-0.1l0.1,0c0,0.1,0,0.1,0,0.2
				c0,0.1,0.1,0.1,0.1,0.2c0.1,0.1,0.3,0.3,0.5,0.3s0.4,0.1,0.8,0.1c0.2,0,0.5,0,0.6-0.1c0.2-0.1,0.3-0.1,0.4-0.3
				c0.1-0.1,0.1-0.2,0.1-0.4c0-0.1,0-0.2-0.1-0.3c0-0.1-0.1-0.1-0.2-0.2s-0.2-0.1-0.4-0.2c-0.1-0.1-0.3-0.1-0.5-0.2
				c-0.3-0.1-0.7-0.2-0.9-0.3s-0.5-0.3-0.6-0.5c-0.1-0.2-0.2-0.4-0.2-0.6c0-0.2,0.1-0.4,0.2-0.6c0.1-0.2,0.3-0.3,0.6-0.4
				s0.6-0.1,0.9-0.1c0.2,0,0.4,0,0.6,0c0.2,0,0.3,0.1,0.5,0.1c0.1,0.1,0.3,0.1,0.4,0.2c0.1,0.1,0.2,0.2,0.4,0.3l-0.4,0.5l-0.1,0.1
				l0-0.1c0-0.1,0-0.1,0-0.2c0-0.1-0.1-0.1-0.1-0.2c-0.2-0.1-0.3-0.2-0.5-0.3c-0.2-0.1-0.4-0.1-0.6-0.1c-0.3,0-0.5,0-0.7,0.1
				c-0.2,0.1-0.3,0.2-0.3,0.4c0,0.1,0,0.2,0.1,0.3c0.1,0.1,0.2,0.2,0.4,0.3c0.2,0.1,0.5,0.2,0.8,0.3c0.4,0.1,0.7,0.2,0.9,0.4
				c0.2,0.1,0.4,0.3,0.5,0.4c0.1,0.2,0.2,0.3,0.2,0.6c0,0.3-0.1,0.5-0.2,0.7s-0.3,0.4-0.6,0.5s-0.6,0.2-1.1,0.2
				C147.8,90.1,147.5,90.1,147.3,90z"/>
			<path d="M151.2,85.4h3.3V86h-3.3V85.4z M152.8,89.9c-0.2-0.1-0.3-0.3-0.4-0.5c-0.1-0.2-0.2-0.5-0.2-0.8c0-0.3,0-0.7,0-1.1
				l0.1-3.3l0.8-0.1l0.1,0l0,0.1c0,0-0.1,0.1-0.1,0.1s0,0.1-0.1,0.2l-0.1,1.1l0,0.2l-0.1,1.7c0,0.5,0,0.9,0,1.2s0.1,0.5,0.2,0.6
				c0.1,0.1,0.3,0.2,0.5,0.2c0.2,0,0.4,0,0.6-0.1c0.2-0.1,0.3-0.2,0.5-0.3l0.2,0.6c-0.2,0.2-0.5,0.3-0.7,0.4s-0.5,0.1-0.8,0.1
				C153.2,90.1,153,90,152.8,89.9z"/>
			<path d="M157.6,90.1c-0.5,0-0.9-0.1-1.2-0.4c-0.3-0.2-0.4-0.5-0.4-0.9c0-0.2,0.1-0.5,0.2-0.7c0.1-0.2,0.3-0.4,0.5-0.5
				c0.2-0.1,0.5-0.2,0.7-0.3c0.3-0.1,0.6-0.1,0.9-0.1c0.1,0,0.2,0,0.3,0c0.1,0,0.2,0,0.4,0c0.1,0,0.3,0,0.4,0l0,0.6
				c-0.1,0-0.2,0-0.4,0c-0.1,0-0.2,0-0.4,0c-0.1,0-0.2,0-0.4,0c-0.2,0-0.5,0-0.7,0.1c-0.2,0-0.4,0.1-0.5,0.2s-0.3,0.2-0.3,0.3
				c-0.1,0.1-0.1,0.3-0.1,0.5c0,0.1,0,0.3,0.1,0.4c0.1,0.1,0.1,0.2,0.2,0.2c0.1,0.1,0.2,0.1,0.3,0.1c0.1,0,0.2,0,0.4,0
				c0.3,0,0.5,0,0.7-0.1s0.4-0.2,0.5-0.4c0.1-0.2,0.3-0.4,0.3-0.6c0.1-0.2,0.1-0.5,0.1-0.8c0-0.4-0.1-0.8-0.2-1.1
				c-0.1-0.3-0.3-0.4-0.5-0.5c-0.2-0.1-0.5-0.2-0.8-0.2c-0.2,0-0.4,0-0.7,0.1c-0.2,0.1-0.4,0.2-0.6,0.4l-0.3-0.5
				c0.2-0.2,0.5-0.4,0.7-0.5c0.3-0.1,0.6-0.2,0.9-0.2c0.3,0,0.6,0,0.8,0.1c0.2,0.1,0.5,0.2,0.6,0.4c0.2,0.2,0.3,0.4,0.4,0.7
				c0.1,0.3,0.1,0.6,0.1,1.1V90h-0.8v-0.7c-0.1,0.2-0.2,0.3-0.3,0.4c-0.1,0.1-0.3,0.2-0.4,0.2c-0.1,0.1-0.3,0.1-0.4,0.1
				C157.9,90.1,157.7,90.1,157.6,90.1z"/>
			<path d="M161.7,85.4h0.8l0,1.3l-0.1-0.1c0-0.2,0.1-0.4,0.2-0.6c0.1-0.2,0.2-0.3,0.4-0.4c0.1-0.1,0.3-0.2,0.5-0.2
				c0.2-0.1,0.3-0.1,0.5-0.1c0.2,0,0.5,0,0.7,0.1c0.2,0.1,0.4,0.2,0.5,0.4l-0.3,0.6l0,0.1l-0.1,0c0-0.1,0-0.1-0.1-0.2
				c0,0-0.1-0.1-0.2-0.2c-0.1-0.1-0.2-0.1-0.3-0.1s-0.2,0-0.3,0c-0.2,0-0.3,0-0.5,0.1s-0.3,0.2-0.5,0.3s-0.2,0.3-0.3,0.5
				s-0.1,0.5-0.1,0.7V90h-0.7V85.4z"/>
			<path d="M166.2,85.4h3.3V86h-3.3V85.4z M167.8,89.9c-0.2-0.1-0.3-0.3-0.4-0.5c-0.1-0.2-0.2-0.5-0.2-0.8c0-0.3,0-0.7,0-1.1
				l0.1-3.3l0.8-0.1l0.1,0l0,0.1c0,0-0.1,0.1-0.1,0.1s0,0.1-0.1,0.2l-0.1,1.1l0,0.2l-0.1,1.7c0,0.5,0,0.9,0,1.2s0.1,0.5,0.2,0.6
				c0.1,0.1,0.3,0.2,0.5,0.2c0.2,0,0.4,0,0.6-0.1c0.2-0.1,0.3-0.2,0.5-0.3l0.2,0.6c-0.2,0.2-0.5,0.3-0.7,0.4s-0.5,0.1-0.8,0.1
				C168.2,90.1,168,90,167.8,89.9z"/>
		</g>
	</g>
</g>
</svg>
